<svg xmlns="http://www.w3.org/2000/svg" viewBox="0 0 184.96 184.96"><defs><style>.cls-1{fill:#c30;}.cls-2{fill:#fff;stroke:#fff;stroke-width:5px;}.cls-2,.cls-3,.cls-4{stroke-linecap:round;stroke-linejoin:round;}.cls-3{fill:#e23d3d;stroke:#e23d3d;}.cls-3,.cls-4{stroke-width:10px;}.cls-4{fill:none;stroke:#e06363;}</style></defs><title>game_health</title><g id="Layer_2" data-name="Layer 2"><g id="Game_play" data-name="Game play"><rect class="cls-1" width="184.96" height="184.96" rx="64.69" ry="64.69"/><path class="cls-2" d="M134,67.12H117.84V50.91a25.36,25.36,0,0,0-50.72,0V67.12H50.91a25.36,25.36,0,0,0,0,50.72H67.12V134a25.36,25.36,0,0,0,50.72,0V117.84H134a25.36,25.36,0,0,0,0-50.72Z"/><path class="cls-3" d="M92.48,86.57a11.75,11.75,0,0,1,11.6-11.9c6.41,0,11.6,2.75,11.6,11.9-.37,13.73-23.2,23.72-23.2,23.72s-22.83-10-23.2-23.72c0-9.15,5.19-11.9,11.6-11.9a11.75,11.75,0,0,1,11.6,11.9Z"/><path class="cls-4" d="M77.4,78.68a7.5,7.5,0,0,0-4,5,13.49,13.49,0,0,0,.38,6.73"/></g></g></svg>