<svg xmlns="http://www.w3.org/2000/svg" viewBox="0 0 242.76 86.66"><defs><style>.cls-1{opacity:0.5;}.cls-2{fill:none;stroke:#fff;stroke-width:5px;}.cls-2,.cls-3{stroke-linecap:round;stroke-linejoin:round;}.cls-3{fill:#eada47;stroke:#eada47;stroke-width:10px;}</style></defs><title>game_mole_star</title><g id="Layer_2" data-name="Layer 2"><g id="Game_play" data-name="Game play"><g id="SAD_MOLE" data-name="SAD MOLE"><g class="cls-1"><path class="cls-2" d="M126.2,35.31,123.32,35C81.65,30.11,48.91,31,48.13,37.47c-.65,5.41,21.58,13.14,53.41,19.31"/><path class="cls-2" d="M155.83,64.45c35.12,3.2,61.16,1.83,61.85-3.89S194.56,46.91,161,40.64"/><path class="cls-2" d="M88.91,46C35.71,60.76-1.4,75.89,2.83,81.77c4.09,5.68,45.44.9,97.68-10.67"/><path class="cls-2" d="M183.14,49.16c36.9-11.67,60.19-22.37,56.79-27.1-3.82-5.31-40.18-1.48-87.56,8.49"/></g><polygon class="cls-3" points="38.3 41.5 36.26 53.4 44.9 61.83 32.95 63.56 27.61 74.39 22.27 63.56 10.32 61.83 18.96 53.4 16.92 41.5 27.61 47.12 38.3 41.5"/><polygon class="cls-3" points="143.85 54.13 138.75 61.83 142.2 70.4 133.29 67.93 126.2 73.86 125.81 64.62 117.98 59.71 126.64 56.49 128.89 47.52 134.64 54.76 143.85 54.13"/><polygon class="cls-3" points="219.56 11.56 214.77 17.54 216.99 24.87 209.82 22.17 203.53 26.54 203.88 18.89 197.78 14.26 205.17 12.23 207.69 5 211.9 11.4 219.56 11.56"/></g></g></g></svg>