<svg xmlns="http://www.w3.org/2000/svg" viewBox="0 0 1200 1430.05"><defs><style>.cls-1{fill:#3cf;opacity:0;}.cls-2{opacity:0.3;}.cls-3,.cls-4{fill:none;stroke:#fff;stroke-linecap:round;stroke-linejoin:round;}.cls-3{stroke-width:50px;}.cls-4{stroke-width:20px;}</style></defs><title>game_frozen_overlay</title><g id="Layer_2" data-name="Layer 2"><g id="Game_play" data-name="Game play"><g id="overlayFrozen"><rect class="cls-1" width="1200" height="1430.05"/><g id="snowflake" class="cls-2"><polygon class="cls-3" points="600.21 636.86 742.24 532.89 723.21 707.88 884.27 778.9 723.21 849.91 742.24 1024.91 600.21 920.93 458.17 1024.91 477.2 849.91 316.14 778.9 477.2 707.88 458.17 532.89 600.21 636.86"/><line class="cls-3" x1="600.21" y1="343.61" x2="600.21" y2="594.52"/><polyline class="cls-3" points="500.43 394.58 600.21 494.36 699.99 394.58"/><line class="cls-3" x1="227.65" y1="562.93" x2="444.94" y2="688.38"/><polyline class="cls-3" points="221.9 674.83 358.2 638.3 321.68 502"/><line class="cls-3" x1="975.16" y1="560.4" x2="757.87" y2="685.85"/><polyline class="cls-3" points="881.13 499.47 844.61 635.77 980.91 672.29"/><line class="cls-3" x1="600.21" y1="1206.48" x2="600.21" y2="955.58"/><polyline class="cls-3" points="699.99 1155.52 600.21 1055.74 500.43 1155.52"/><line class="cls-3" x1="224.84" y1="994.44" x2="442.13" y2="868.99"/><polyline class="cls-3" points="318.87 1055.37 355.39 919.07 219.09 882.55"/><line class="cls-3" x1="972.28" y1="994.44" x2="754.99" y2="868.99"/><polyline class="cls-3" points="978.03 882.55 841.73 919.07 878.25 1055.37"/></g><g id="snowflake-2" data-name="snowflake" class="cls-2"><polygon class="cls-4" points="596.07 730.74 650.62 690.8 643.31 758.02 705.18 785.29 643.31 812.57 650.62 879.79 596.07 839.85 541.51 879.79 548.82 812.57 486.95 785.29 548.82 758.02 541.51 690.8 596.07 730.74"/><line class="cls-4" x1="596.07" y1="618.1" x2="596.07" y2="714.47"/><polyline class="cls-4" points="557.74 637.68 596.07 676 634.39 637.68"/><line class="cls-4" x1="452.96" y1="702.34" x2="536.43" y2="750.53"/><polyline class="cls-4" points="450.76 745.32 503.11 731.29 489.08 678.94"/><line class="cls-4" x1="740.09" y1="701.37" x2="656.63" y2="749.55"/><polyline class="cls-4" points="703.97 677.96 689.94 730.32 742.3 744.35"/><line class="cls-4" x1="596.07" y1="949.53" x2="596.07" y2="853.16"/><polyline class="cls-4" points="634.39 929.96 596.07 891.63 557.74 929.96"/><line class="cls-4" x1="451.89" y1="868.09" x2="535.35" y2="819.9"/><polyline class="cls-4" points="488 891.49 502.03 839.14 449.68 825.11"/><line class="cls-4" x1="738.99" y1="868.09" x2="655.52" y2="819.9"/><polyline class="cls-4" points="741.19 825.11 688.84 839.14 702.87 891.49"/></g></g></g></g></svg>