<svg xmlns="http://www.w3.org/2000/svg" viewBox="0 0 293.83 372.53"><defs><style>.cls-1{fill:#9b8c76;}.cls-2{fill:#ddcab1;}.cls-3{fill:#f7f4f0;}.cls-11,.cls-4,.cls-7,.cls-9{fill:none;stroke-linecap:round;stroke-linejoin:round;}.cls-4{stroke:#7a7167;}.cls-4,.cls-7{stroke-width:16px;}.cls-5{fill:#5b5853;}.cls-6{fill:#efb1b1;opacity:0.6;}.cls-7{stroke:#54524f;}.cls-8{fill:#544e50;}.cls-9{stroke:#93898d;}.cls-11,.cls-9{stroke-width:10px;}.cls-10{fill:#eada47;}.cls-11{stroke:#544e50;}.cls-12{fill:#b2dfed;}.cls-13{fill:#7a7167;}</style></defs><title>game_bombMole</title><g id="Layer_2" data-name="Layer 2"><g id="Game_play" data-name="Game play"><g id="BOMB_MOLE" data-name="BOMB MOLE"><polygon class="cls-1" points="197.82 268.56 148.62 263.17 148.62 262.94 147.55 263.06 146.47 262.94 146.48 263.17 97.27 268.56 68.26 364.53 146.91 364.53 148.18 364.53 226.83 364.53 197.82 268.56"/><path id="head" class="cls-1" d="M230.9,46.92c-22.44-20.75-51.55-33.27-83.35-33.27S86.64,26.17,64.19,46.92C36.55,72.48,19,110.52,19,153c0,44.17,8.15,88.92,37.71,114.45,22,19,60.57,24.9,90.82,24.9s68.86-5.94,90.82-24.9c29.57-25.53,37.71-70.29,37.71-114.45C276.08,110.52,258.55,72.48,230.9,46.92Z"/><ellipse class="cls-1" cx="146.92" cy="191.92" rx="138.92" ry="98.67"/><ellipse id="snout" class="cls-2" cx="147.55" cy="218.03" rx="100.85" ry="72.56"/><circle id="eyes" class="cls-3" cx="78.49" cy="138.22" r="11.25"/><circle id="eyeys" class="cls-3" cx="216.6" cy="138.22" r="11.25"/><g id="teeeth"><polygon class="cls-3" points="148.18 184.85 159.6 192.25 156.64 211.83 148.18 211.83 148.18 184.85"/><polygon class="cls-3" points="146.92 184.37 135.49 192.25 138.45 211.83 146.92 211.83 146.92 184.37"/></g><path class="cls-4" d="M148.61,181.71s2.07,13.73,22,13.73"/><path class="cls-4" d="M146.48,181.71s-2.07,13.73-22,13.73"/><path id="nose" class="cls-5" d="M147.55,153.43c-22.07,0-29.68,3.81-26.26,14.08s11.61,14.08,26.26,14.08,22.83-3.81,26.26-14.08S169.62,153.43,147.55,153.43Z"/><path class="cls-4" d="M201.55,96.77s9.3,9.7,30.1,12.46"/><path class="cls-4" d="M93.54,96.77s-9.3,9.7-30.1,12.46"/><path id="hair" class="cls-1" d="M133.62,14.62s-31-1.76-35.86-6.62a20.86,20.86,0,0,0,10.65,9.73S93.93,16,90.8,12.86c0,0,6.95,12.28,13.43,12.28"/><ellipse class="cls-6" cx="251.41" cy="166.69" rx="16.18" ry="8.95"/><ellipse class="cls-6" cx="43.68" cy="166.69" rx="16.18" ry="8.95"/><path class="cls-7" d="M285.83,191.92a74.11,74.11,0,0,0-9.77-36.41c0-.84,0-1.67,0-2.51,0-42.48-17.53-80.52-45.18-106.08-22.44-20.75-51.55-33.27-83.35-33.27a119.93,119.93,0,0,0-14.8.92c-5-.33-30.61-2.19-35-6.57a20.86,20.86,0,0,0,10.65,9.73S93.93,16,90.8,12.86c0,0,4.17,7.37,9.07,10.69A127,127,0,0,0,64.19,46.92C36.55,72.48,19,110.52,19,153c0,.12,0,.23,0,.35A74.6,74.6,0,0,0,8,191.92c0,29.46,18.18,55.9,47,74,.57.52,1.14,1.05,1.72,1.56,9.42,8.14,21.92,13.87,35.51,17.77l-24,79.3H226.83l-24-79.3c13.58-3.9,26.08-9.63,35.51-17.77,1.52-1.31,3-2.69,4.38-4.1C269.29,245.38,285.83,220,285.83,191.92Z"/><path class="cls-8" d="M230.68,229.87c.21-.36.42-.73.62-1.1l7.25-13.63a29.85,29.85,0,0,0-12.33-40.37l-39.43-21a29.85,29.85,0,0,0-40.37,12.33l-7.25,13.63c-.2.37-.38.75-.56,1.13a93.77,93.77,0,1,0,92.08,49Z"/><path class="cls-9" d="M136.59,206.82s-32.8,1.44-52.47,34.16"/><rect class="cls-10" x="263.72" y="129.11" width="27.39" height="5.99" rx="2.74" ry="2.74" transform="translate(-21.65 61.62) rotate(-12.2)"/><rect class="cls-10" x="250.56" y="111.04" width="22.77" height="5.99" rx="2.52" ry="2.52" transform="translate(24.2 272.45) rotate(-57.2)"/><rect class="cls-10" x="228.26" y="111.08" width="18.29" height="5.99" rx="2.26" ry="2.26" transform="matrix(-0.21, -0.98, 0.98, -0.21, 176.08, 370.23)"/><rect class="cls-10" x="259.64" y="153.02" width="22.77" height="5.99" rx="2.52" ry="2.52" transform="translate(127.72 -121.94) rotate(32.8)"/><rect class="cls-10" x="239.51" y="163.11" width="18.29" height="5.99" rx="2.26" ry="2.26" transform="translate(358.46 -112.04) rotate(77.8)"/><path class="cls-11" d="M206.55,168.89l7.19-13.71c7.2-13.74,25.58-13.65,25.58-13.65"/><circle id="eyeys-2" data-name="eyeys" class="cls-5" cx="216.6" cy="138.22" r="8.48"/><circle id="eyeys-3" data-name="eyeys" class="cls-5" cx="78.49" cy="138.22" r="8.48"/><path class="cls-12" d="M94.47,182.38a15.59,15.59,0,0,1-16,16c-8.82,0-16-5.49-16-16s16-25.36,16-25.36S94.47,172.94,94.47,182.38Z"/><path class="cls-1" d="M247.27,321.42c0,17-15,16.89-33.44,16.89s-33.44-1.74-33.44-18.77,15-42.9,33.44-42.9S247.27,304.39,247.27,321.42Z"/><path class="cls-13" d="M205.32,280s-13-13.77-15.76-11,7.88,15.76,7.88,15.76Z"/><path class="cls-13" d="M196.46,288.4s-15.55-10.81-17.68-7.55,10.94,13.81,10.94,13.81Z"/><path class="cls-13" d="M188.52,296.87s-16.07-3.28-16.65,0,13.43,7.25,13.43,7.25Z"/><path class="cls-1" d="M53,321.42c0,17,15,16.89,33.44,16.89s33.44-1.74,33.44-18.77-15-42.9-33.44-42.9S53,304.39,53,321.42Z"/><path class="cls-13" d="M94.94,280s13-13.77,15.76-11-7.88,15.76-7.88,15.76Z"/><path class="cls-13" d="M103.81,288.4s15.55-10.81,17.68-7.55-10.94,13.81-10.94,13.81Z"/><path class="cls-13" d="M111.75,296.87s16.07-3.28,16.65,0S115,304.16,115,304.16Z"/></g></g></g></svg>