<svg xmlns="http://www.w3.org/2000/svg" viewBox="0 0 1200 489.95"><defs><style>.cls-1{opacity:0.9;}.cls-2,.cls-3{fill:#bc9179;}.cls-2{stroke:#936b55;stroke-linecap:round;stroke-linejoin:round;stroke-width:5px;}.cls-4{fill:#936b55;}</style></defs><title>game_footer</title><g id="Layer_2" data-name="Layer 2"><g id="Game_play" data-name="Game play"><g id="footer"><g class="cls-1"><polygon class="cls-2" points="255.79 413.43 165.94 413.43 502.85 76.52 592.7 76.52 255.79 413.43"/><polygon class="cls-2" points="345.64 413.43 255.79 413.43 592.7 76.52 682.55 76.52 345.64 413.43"/><polygon class="cls-2" points="435.5 413.43 345.64 413.43 682.55 76.52 772.41 76.52 435.5 413.43"/><polygon class="cls-2" points="525.35 413.43 435.5 413.43 772.41 76.52 862.26 76.52 525.35 413.43"/><polygon class="cls-2" points="615.2 413.43 525.35 413.43 862.26 76.52 952.11 76.52 615.2 413.43"/><polygon class="cls-2" points="705.05 413.43 615.2 413.43 952.11 76.52 1041.96 76.52 705.05 413.43"/><polygon class="cls-2" points="794.91 413.43 705.05 413.43 1041.96 76.52 1131.82 76.52 794.91 413.43"/><polyline class="cls-2" points="1196.88 101.31 884.76 413.43 794.91 413.43 1131.82 76.52 1195.8 76.52"/><polyline class="cls-2" points="1196.99 191.05 974.61 413.43 884.76 413.43 1196.88 101.31"/><polyline class="cls-2" points="1196.52 281.38 1064.46 413.43 974.61 413.43 1196.99 191.05"/><polyline class="cls-2" points="1197.08 370.67 1154.32 413.43 1064.46 413.43 1196.52 281.38"/><polyline class="cls-2" points="5.43 124.68 53.59 76.52 143.44 76.52 3.86 216.1"/><polyline class="cls-2" points="3.86 216.1 143.44 76.52 233.29 76.52 4.03 305.79"/><polyline class="cls-2" points="4.03 305.79 233.29 76.52 323.14 76.52 4 395.67"/><polyline class="cls-2" points="4 395.67 323.14 76.52 413 76.52 76.09 413.43 4.25 413.43"/><polygon class="cls-2" points="165.94 413.43 76.09 413.43 413 76.52 502.85 76.52 165.94 413.43"/><rect class="cls-3" x="2.5" y="2.5" width="1195" height="71.52"/><path class="cls-4" d="M1195,5V71.52H5V5H1195m5-5H0V76.52H1200V0Z"/><rect class="cls-3" x="1125.98" y="2.5" width="71.52" height="484.95"/><path class="cls-4" d="M1195,5V484.95h-66.52V5H1195m5-5h-76.52V489.95H1200V0Z"/><rect class="cls-3" x="2.5" y="415.93" width="1195" height="71.52"/><path class="cls-4" d="M1195,418.43v66.52H5V418.43H1195m5-5H0v76.52H1200V413.43Z"/><rect class="cls-3" x="2.5" y="79.02" width="71.52" height="408.43"/><path class="cls-4" d="M71.52,81.52V484.95H5V81.52H71.52m5-5H0V489.95H76.52V76.52Z"/><circle class="cls-4" cx="26.88" cy="26.25" r="5.37"/><circle class="cls-4" cx="26.88" cy="53.54" r="5.37"/><circle class="cls-4" cx="54.84" cy="26.25" r="5.37"/><circle class="cls-4" cx="54.84" cy="53.54" r="5.37"/><circle class="cls-4" cx="1147.76" cy="24.61" r="5.37"/><circle class="cls-4" cx="1147.76" cy="51.91" r="5.37"/><circle class="cls-4" cx="1175.72" cy="24.61" r="5.37"/><circle class="cls-4" cx="1175.72" cy="51.91" r="5.37"/><circle class="cls-4" cx="1147.76" cy="438.04" r="5.37"/><circle class="cls-4" cx="1147.76" cy="465.33" r="5.37"/><circle class="cls-4" cx="1175.72" cy="438.04" r="5.37"/><circle class="cls-4" cx="1175.72" cy="465.33" r="5.37"/><circle class="cls-4" cx="24.28" cy="438.04" r="5.37"/><circle class="cls-4" cx="24.28" cy="465.33" r="5.37"/><circle class="cls-4" cx="52.24" cy="438.04" r="5.37"/><circle class="cls-4" cx="52.24" cy="465.33" r="5.37"/></g></g></g></g></svg>