<svg xmlns="http://www.w3.org/2000/svg" viewBox="0 0 291.13 332.15"><defs><style>.cls-1{fill:#826257;}.cls-2{fill:#9b7b6d;}.cls-3{fill:#825f55;}.cls-4{fill:#4d5c91;}.cls-5{fill:none;stroke:#54524f;stroke-linecap:round;stroke-linejoin:round;stroke-width:16px;}.cls-6{fill:#966f60;}</style></defs><title>game_hammer</title><g id="Layer_2" data-name="Layer 2"><g id="Game_play" data-name="Game play"><g id="Hammer"><path class="cls-1" d="M56,105.17a8.14,8.14,0,0,1-5.79-2.4L35.43,88A8.19,8.19,0,1,1,47,76.44L61.76,91.19a8.19,8.19,0,0,1-5.79,14Z"/><path class="cls-1" d="M41.22,79a3.18,3.18,0,0,1,2.25.93L58.22,94.73a3.19,3.19,0,0,1-4.51,4.51L39,84.49A3.19,3.19,0,0,1,41.22,79m0-10a13.19,13.19,0,0,0-9.33,22.52l14.75,14.75a13.19,13.19,0,0,0,18.65,0h0a13.19,13.19,0,0,0,0-18.65L50.54,72.91A13.15,13.15,0,0,0,41.22,69Z"/><path class="cls-2" d="M105,22.57c25-25,73.38-17.06,108.12,17.68s42.66,83.15,17.68,108.12C185.14,193.48,92.56,245.1,92.56,245.1S51,249.48,27.74,226.19,8.23,160.76,8.23,160.76,58.54,71.65,105,22.57Z"/><ellipse class="cls-3" cx="177.3" cy="76.83" rx="34.81" ry="61.87" transform="translate(-2.4 147.87) rotate(-45)"/><path class="cls-1" d="M269.95,319.43a7.46,7.46,0,0,1-5.31-2.2L161.84,214.44a7.51,7.51,0,0,1,0-10.63l1-1a7.51,7.51,0,0,1,10.63,0L276.21,305.65a7.52,7.52,0,0,1,0,10.63l-1,1A7.46,7.46,0,0,1,269.95,319.43Z"/><path class="cls-1" d="M168.11,205.65a2.46,2.46,0,0,1,1.78.74L272.68,309.18a2.51,2.51,0,0,1,0,3.55l-1,1a2.51,2.51,0,0,1-3.55,0L165.37,210.9a2.52,2.52,0,0,1,0-3.55l1-1a2.47,2.47,0,0,1,1.78-.74m0-10a12.47,12.47,0,0,0-8.85,3.66l-1,1a12.51,12.51,0,0,0,0,17.7L261.1,320.77a12.51,12.51,0,0,0,17.7,0l1-1a12.51,12.51,0,0,0,0-17.7L177,199.32a12.47,12.47,0,0,0-8.85-3.66Z"/><path class="cls-4" d="M58.77,78.41s8.54,57.38,33.39,82.42,80.93,33.81,80.93,33.81l-22.54,16.77s-49-9.31-73.48-34-34.65-74.67-34.65-74.67Z"/><path class="cls-5" d="M279.27,301.64,172.58,194.94c21.16-14.71,42.46-31,58.18-46.57,25-25,17.06-73.38-17.68-108.12S129.93-2.4,105,22.57C89.27,39.15,73.15,60.3,58.67,81l-8.13-8.13a13.19,13.19,0,0,0-18.65,0h0a13.19,13.19,0,0,0,0,18.65l11.72,11.72C22.86,134.85,8.23,160.76,8.23,160.76S4.45,202.9,27.74,226.19,92.56,245.1,92.56,245.1s26.27-14.65,57.71-35.16L260.62,320.29a13.19,13.19,0,0,0,18.65,0h0A13.19,13.19,0,0,0,279.27,301.64Z"/><ellipse class="cls-6" cx="180.8" cy="73.33" rx="21.88" ry="38.88" transform="translate(1.1 149.32) rotate(-45)"/><ellipse class="cls-3" cx="182.75" cy="71.37" rx="14.45" ry="25.68" transform="translate(3.06 150.13) rotate(-45)"/><ellipse class="cls-6" cx="183.51" cy="70.61" rx="8.55" ry="15.2" transform="translate(3.82 150.44) rotate(-45)"/></g></g></g></svg>