<svg xmlns="http://www.w3.org/2000/svg" viewBox="0 0 219.11 174.42"><defs><style>.cls-1{fill:#826257;}.cls-2{fill:#9b7b6d;}.cls-3{fill:#825f55;}.cls-4{fill:#4d5c91;}.cls-5{fill:none;stroke:#54524f;stroke-linecap:round;stroke-linejoin:round;stroke-width:8px;}.cls-6{fill:#966f60;}.cls-7{fill:#b74f4f;}</style></defs><title>home_play_1</title><g id="Layer_2" data-name="Layer 2"><g id="Profile"><g id="tabs"><g id="hammer"><path class="cls-1" d="M29.25,52.78a1.93,1.93,0,0,1-1.37-.57l-7.76-7.76a1.94,1.94,0,1,1,2.75-2.75l7.76,7.76a1.94,1.94,0,0,1-1.37,3.32Z"/><path class="cls-1" d="M21.48,36.13a6.92,6.92,0,0,0-4.91,2h0a6.94,6.94,0,0,0,0,9.82l7.76,7.76a6.94,6.94,0,0,0,9.82,0h0a6.94,6.94,0,0,0,0-9.82l-7.76-7.76a6.92,6.92,0,0,0-4.91-2Z"/><path class="cls-2" d="M55,11.67c13.15-13.15,38.63-9,56.91,9.31s22.45,43.77,9.31,56.91c-24,23.74-72.74,50.91-72.74,50.91s-21.86,2.31-34.12-10S4.12,84.41,4.12,84.41,30.61,37.5,55,11.67Z"/><ellipse class="cls-3" cx="93.11" cy="40.23" rx="18.33" ry="32.57" transform="translate(-1.17 77.62) rotate(-45)"/><path class="cls-1" d="M141.88,165.56a1.58,1.58,0,0,1-1.12-.46L86.65,111a1.59,1.59,0,0,1,0-2.25l.5-.5a1.59,1.59,0,0,1,2.24,0l54.11,54.11a1.59,1.59,0,0,1,0,2.24l-.5.5A1.58,1.58,0,0,1,141.88,165.56Z"/><path class="cls-1" d="M88.28,102.78a6.57,6.57,0,0,0-4.66,1.93l-.5.5a6.59,6.59,0,0,0,0,9.31l54.11,54.11a6.59,6.59,0,0,0,9.32,0l.5-.5a6.59,6.59,0,0,0,0-9.31L92.93,104.71a6.57,6.57,0,0,0-4.66-1.93Z"/><path class="cls-4" d="M30.73,41.06S35.22,71.27,48.3,84.45s42.6,17.8,42.6,17.8L79,111.07s-25.77-4.9-38.68-17.9-18.24-39.3-18.24-39.3Z"/><path class="cls-5" d="M146.79,158.56,90.63,102.4c11.14-7.74,22.35-16.33,30.62-24.51,13.15-13.15,9-38.63-9.31-56.91S68.18-1.47,55,11.67C46.78,20.4,38.29,31.53,30.67,42.45l-4.28-4.28a6.94,6.94,0,0,0-9.82,0h0a6.94,6.94,0,0,0,0,9.82l6.17,6.17C11.82,70.77,4.12,84.41,4.12,84.41s-2,22.18,10.27,34.44,34.12,10,34.12,10,13.83-7.71,30.38-18.51L137,168.38a6.94,6.94,0,0,0,9.82,0h0A6.94,6.94,0,0,0,146.79,158.56Z"/><ellipse class="cls-6" cx="94.96" cy="38.39" rx="11.52" ry="20.46" transform="translate(0.67 78.39) rotate(-45)"/><ellipse class="cls-3" cx="95.99" cy="37.36" rx="7.61" ry="13.52" transform="translate(1.7 78.81) rotate(-45)"/><ellipse class="cls-6" cx="96.38" cy="36.96" rx="4.5" ry="8" transform="translate(2.1 78.98) rotate(-45)"/></g><g id="hammer-2" data-name="hammer"><path class="cls-1" d="M189.86,52.78a1.94,1.94,0,0,1-1.37-3.32l7.76-7.77A1.94,1.94,0,0,1,199,44.45l-7.76,7.76A1.93,1.93,0,0,1,189.86,52.78Z"/><path class="cls-1" d="M199.78,45.24h0m-2.16-9.1a6.92,6.92,0,0,0-4.91,2L185,45.93a6.94,6.94,0,1,0,9.82,9.82L202.53,48a6.94,6.94,0,0,0,0-9.82h0a6.92,6.92,0,0,0-4.91-2Z"/><path class="cls-2" d="M164.07,11.67c-13.15-13.15-38.63-9-56.91,9.31S84.71,64.75,97.85,77.89c24,23.74,72.74,50.91,72.74,50.91s21.86,2.31,34.12-10S215,84.41,215,84.41,188.5,37.5,164.07,11.67Z"/><ellipse class="cls-3" cx="125.99" cy="40.23" rx="32.57" ry="18.33" transform="translate(8.46 100.87) rotate(-45)"/><path class="cls-1" d="M77.23,165.56a1.58,1.58,0,0,1-1.12-.46l-.5-.5a1.59,1.59,0,0,1,0-2.24l54.11-54.11a1.59,1.59,0,0,1,2.24,0l.5.5a1.59,1.59,0,0,1,0,2.25L78.35,165.1A1.58,1.58,0,0,1,77.23,165.56Z"/><path class="cls-1" d="M133.25,111.78h0m-2.41-9a6.57,6.57,0,0,0-4.66,1.93L72.07,158.82a6.59,6.59,0,0,0,0,9.31l.5.5a6.59,6.59,0,0,0,9.32,0L136,114.52a6.59,6.59,0,0,0,0-9.31l-.5-.5a6.57,6.57,0,0,0-4.66-1.93Z"/><path class="cls-7" d="M188.38,41.06s-4.49,30.21-17.58,43.38-42.6,17.8-42.6,17.8l11.86,8.82s25.77-4.9,38.68-17.9S197,53.87,197,53.87Z"/><path class="cls-5" d="M72.32,158.56l56.16-56.16c-11.14-7.74-22.35-16.33-30.62-24.51-13.15-13.15-9-38.63,9.31-56.91s43.77-22.45,56.91-9.31c8.25,8.73,16.74,19.86,24.36,30.77l4.28-4.28a6.94,6.94,0,0,1,9.82,0h0a6.94,6.94,0,0,1,0,9.82l-6.17,6.17C207.29,70.77,215,84.41,215,84.41s2,22.18-10.27,34.44-34.12,10-34.12,10-13.83-7.71-30.38-18.51L82.13,168.38a6.94,6.94,0,0,1-9.82,0h0A6.94,6.94,0,0,1,72.32,158.56Z"/><ellipse class="cls-6" cx="124.15" cy="38.39" rx="20.46" ry="11.52" transform="translate(9.22 99.03) rotate(-45)"/><ellipse class="cls-3" cx="123.12" cy="37.36" rx="13.52" ry="7.61" transform="translate(9.65 98) rotate(-45)"/><ellipse class="cls-6" cx="122.72" cy="36.96" rx="8" ry="4.5" transform="translate(9.81 97.6) rotate(-45)"/></g></g></g></g></svg>