<svg xmlns="http://www.w3.org/2000/svg" viewBox="0 0 144.6 207.28"><defs><style>.cls-1{fill:#54524f;}.cls-2{fill:#6d655a;}.cls-3{fill:#9b8c76;}.cls-4{fill:#ddcab1;}.cls-5{fill:#5b5853;}.cls-6{fill:#f7f4f0;}.cls-10,.cls-12,.cls-7,.cls-8{fill:none;stroke-linecap:round;stroke-linejoin:round;}.cls-7,.cls-8{stroke:#7a7167;}.cls-7{stroke-width:9px;}.cls-8{stroke-width:11px;}.cls-9{fill:#efb1b1;opacity:0.6;}.cls-10{stroke:#54524f;stroke-width:8px;}.cls-11{fill:#dbac26;}.cls-12{stroke:#b28b29;stroke-width:7px;}</style></defs><title>home_settings</title><g id="Layer_2" data-name="Layer 2"><g id="Profile"><g id="tabs"><g id="settings"><g id="hole"><ellipse class="cls-1" cx="72.08" cy="185.48" rx="61.23" ry="21.79"/><path class="cls-2" d="M125.19,174.63l-.75-.45q-1.53-.9-3.3-1.74t-3.74-1.61q-1-.39-2-.76t-2.13-.72q-2.17-.7-4.53-1.33-1.77-.47-3.63-.9c-2.48-.57-5.09-1.07-7.8-1.51a159.88,159.88,0,0,0-25.2-1.93,159.88,159.88,0,0,0-25.2,1.93c-2.71.44-5.32.94-7.8,1.51q-1.86.43-3.63.9-2.36.63-4.53,1.33-1.09.35-2.13.72t-2,.76q-2,.77-3.74,1.61t-3.3,1.74l-.75.45c-5.16,3.19-8.11,6.9-8.11,10.85a8.37,8.37,0,0,0,.72,3.35c4.53-10.44,29.9-18.44,60.51-18.44s56,8,60.51,18.44a8.37,8.37,0,0,0,.72-3.35C133.31,181.53,130.35,177.83,125.19,174.63Z"/></g><polygon class="cls-3" points="93.28 149.43 72.31 147.13 72.31 147.03 71.85 147.08 71.39 147.03 71.39 147.13 50.41 149.43 38.04 190.35 71.58 190.35 72.12 190.35 105.65 190.35 93.28 149.43"/><path id="head" class="cls-3" d="M107.39,54.93a51.61,51.61,0,0,0-71.08,0A61.44,61.44,0,0,0,17,100.16C17,119,20.52,138.07,33.13,149,42.49,157,59,159.57,71.85,159.57S101.21,157,110.57,149c12.61-10.89,16.08-30,16.08-48.8A61.44,61.44,0,0,0,107.39,54.93Z"/><ellipse class="cls-3" cx="71.85" cy="129.13" rx="54.49" ry="31.63"/><ellipse id="snout" class="cls-4" cx="71.85" cy="140.68" rx="43" ry="18.89"/><circle id="eyes" class="cls-5" cx="42.41" cy="115.17" r="4.14"/><circle id="eyeys" class="cls-5" cx="101.29" cy="115.17" r="4.14"/><g id="teeeth"><polygon class="cls-6" points="72.12 139.31 76.99 142.47 75.73 150.82 72.12 150.82 72.12 139.31"/><polygon class="cls-6" points="71.58 139.11 66.71 142.47 67.97 150.82 71.58 150.82 71.58 139.11"/></g><path class="cls-7" d="M72.3,138s.88,5.86,9.37,5.86"/><path class="cls-7" d="M71.39,138s-.88,5.86-9.37,5.86"/><path id="nose" class="cls-5" d="M71.85,125.92c-9.41,0-12.66,1.62-11.2,6s5,6,11.2,6,9.74-1.62,11.2-6S81.26,125.92,71.85,125.92Z"/><path class="cls-8" d="M94.87,97.5s4,4.14,12.83,5.31"/><path class="cls-8" d="M48.82,97.5s-4,4.14-12.83,5.31"/><path id="hair" class="cls-3" d="M65.91,41.15s-13.22-.75-15.29-2.82a8.89,8.89,0,0,0,4.54,4.15S49,41.74,47.65,40.4c0,0,3,5.23,5.73,5.23"/><ellipse class="cls-9" cx="116.13" cy="127.31" rx="6.9" ry="3.82"/><ellipse class="cls-9" cx="27.56" cy="127.31" rx="6.9" ry="3.82"/><path class="cls-10" d="M126.65,100.26A61.44,61.44,0,0,0,107.39,55,52.16,52.16,0,0,0,71.85,40.85a51.13,51.13,0,0,0-6.36.4c-1.94-.12-13.11-.91-15-2.81A8.89,8.89,0,0,0,55,42.58s-6.17-.74-7.51-2.07a16,16,0,0,0,3.92,4.59A54.17,54.17,0,0,0,36.31,55,61.44,61.44,0,0,0,17,100.26a111.18,111.18,0,0,0,1.88,21.42,19.31,19.31,0,0,0-1.56,7.55c0,11.73,11,22,27.35,27.43L35.95,191l72.8-.61L99,156.66c16.34-5.46,27.35-15.7,27.35-27.43a19.31,19.31,0,0,0-1.56-7.55A111.18,111.18,0,0,0,126.65,100.26Z"/><path class="cls-11" d="M132.28,68.38V64.55c0-24.82-21.22-45.47-49.26-49.87V3.87H60.68V14.68c-28,4.4-49.26,25.05-49.26,49.87v3.84H3.55V87.14h136.6V68.38Z"/><line class="cls-12" x1="71.85" y1="22.31" x2="71.85" y2="40"/><line class="cls-12" x1="81.66" y1="24.23" x2="81.66" y2="34.89"/><line class="cls-12" x1="62.04" y1="24.23" x2="62.04" y2="34.89"/><line class="cls-12" x1="24.31" y1="68.14" x2="119.39" y2="68.14"/><path class="cls-10" d="M132.73,68.51V64.68c0-24.82-21.22-45.47-49.26-49.87V4H61.13V14.81c-28,4.4-49.26,25.05-49.26,49.87v3.84H4V87.27H140.6V68.51Z"/></g></g></g></g></svg>