<svg xmlns="http://www.w3.org/2000/svg" viewBox="0 0 189.86 182.68"><defs><style>.cls-1{fill:#bc9179;}.cls-2{fill:#af775b;}.cls-3{fill:#525252;}.cls-3,.cls-4{stroke:#525252;stroke-linecap:round;stroke-linejoin:round;stroke-width:11px;}.cls-4{fill:#95d2e8;}.cls-5{fill:#cc4f4c;}.cls-6{fill:#e5e3e3;}.cls-7{fill:#afb9d2;}</style></defs><title>home_shop</title><g id="Layer_2" data-name="Layer 2"><g id="Profile"><g id="tabs"><rect class="cls-1" x="5.52" width="178.81" height="180.44"/><rect class="cls-2" x="5.52" y="159.81" width="178.81" height="20.63"/><rect class="cls-3" x="130.43" y="53.42" width="40.65" height="122.74"/><rect class="cls-4" x="21.47" y="53.42" width="93.19" height="86.51"/><rect class="cls-4" x="131.4" y="53.42" width="38.7" height="87.71"/><path class="cls-5" d="M5.52,0V30.85C5.52,35.36,8.86,39,13,39s7.45-3.66,7.45-8.17V0Z"/><path class="cls-6" d="M20.43,0V30.85c0,4.51,3.34,8.17,7.45,8.17s7.45-3.66,7.45-8.17V0Z"/><path class="cls-5" d="M35.33,0V30.85c0,4.51,3.34,8.17,7.45,8.17s7.45-3.66,7.45-8.17V0Z"/><path class="cls-6" d="M50.23,0V30.85c0,4.51,3.34,8.17,7.45,8.17s7.45-3.66,7.45-8.17V0Z"/><path class="cls-5" d="M65.13,0V30.85c0,4.51,3.34,8.17,7.45,8.17S80,35.36,80,30.85V0Z"/><path class="cls-6" d="M80,0V30.85C80,35.36,83.37,39,87.48,39s7.45-3.66,7.45-8.17V0Z"/><path class="cls-5" d="M94.93,0V30.85c0,4.51,3.34,8.17,7.45,8.17s7.45-3.66,7.45-8.17V0Z"/><path class="cls-6" d="M109.83,0V30.85c0,4.51,3.34,8.17,7.45,8.17s7.45-3.66,7.45-8.17V0Z"/><path class="cls-5" d="M124.73,0V30.85c0,4.51,3.34,8.17,7.45,8.17s7.45-3.66,7.45-8.17V0Z"/><path class="cls-6" d="M139.63,0V30.85c0,4.51,3.34,8.17,7.45,8.17s7.45-3.66,7.45-8.17V0Z"/><path class="cls-5" d="M154.54,0V30.85c0,4.51,3.34,8.17,7.45,8.17s7.45-3.66,7.45-8.17V0Z"/><path class="cls-6" d="M169.44,0V30.85c0,4.51,3.34,8.17,7.45,8.17s7.45-3.66,7.45-8.17V0Z"/><rect class="cls-7" y="174.18" width="189.86" height="8.5"/></g></g></g></svg>