<svg xmlns="http://www.w3.org/2000/svg" viewBox="0 0 200.97 186.68"><defs><style>.cls-1{fill:#e55c4a;}.cls-2{fill:#ba433a;}.cls-3{fill:#cc4f4c;}.cls-4{fill:none;stroke:#54524f;stroke-linecap:round;stroke-linejoin:round;stroke-width:16px;}</style></defs><title>Asset 35</title><g id="Layer_2" data-name="Layer 2"><g id="Game_Mode" data-name="Game Mode"><polygon class="cls-1" points="100.48 82.94 54.22 104.47 100.48 125.27 146.75 103.74 100.48 82.94"/><polygon class="cls-2" points="54.22 104.47 54.22 157.88 100.48 178.68 100.48 125.27 54.22 104.47"/><polygon class="cls-3" points="146.75 103.74 146.75 157.16 100.48 178.68 100.48 125.27 146.75 103.74"/><polygon class="cls-1" points="146.75 8 100.48 29.53 146.75 50.33 193.02 28.8 146.75 8"/><polygon class="cls-2" points="100.48 29.53 100.48 82.94 146.75 103.74 146.75 50.33 100.48 29.53"/><polygon class="cls-3" points="193.02 28.8 193.02 82.22 146.75 103.74 146.75 50.33 193.02 28.8"/><polygon class="cls-1" points="54.32 8.73 8.05 30.25 54.32 51.05 100.59 29.53 54.32 8.73"/><polygon class="cls-2" points="8.05 30.25 8.05 83.67 54.32 104.47 54.32 51.05 8.05 30.25"/><polygon class="cls-3" points="100.59 29.53 100.59 82.94 54.32 104.47 54.32 51.05 100.59 29.53"/><polygon class="cls-4" points="146.7 8 100.48 29.5 54.27 8.73 8 30.25 8 83.67 54.22 104.44 54.16 104.47 54.16 157.88 100.43 178.68 146.7 157.16 146.7 103.74 146.7 103.74 192.97 82.22 192.97 28.8 146.7 8"/></g></g></svg>