<svg xmlns="http://www.w3.org/2000/svg" viewBox="0 0 201.66 229.34"><defs><style>.cls-1{fill:#826257;}.cls-2{fill:#9b7b6d;}.cls-3{fill:#825f55;}.cls-4{fill:#4d5c91;}.cls-5{fill:none;stroke:#54524f;stroke-linecap:round;stroke-linejoin:round;stroke-width:16px;}.cls-6{fill:#966f60;}</style></defs><title>Asset 37</title><g id="Layer_2" data-name="Layer 2"><g id="Game_Mode" data-name="Game Mode"><path class="cls-1" d="M40.37,71.95a3.88,3.88,0,0,1-2.76-1.14l-10-10a3.9,3.9,0,0,1,5.52-5.52l10,10a3.9,3.9,0,0,1-2.76,6.66Z"/><path class="cls-1" d="M30.42,49.19a8.87,8.87,0,0,0-6.29,2.61h0a8.9,8.9,0,0,0,0,12.59l10,10a8.9,8.9,0,0,0,12.59,0h0a8.9,8.9,0,0,0,0-12.59l-10-10a8.87,8.87,0,0,0-6.29-2.61Z"/><path class="cls-2" d="M73.42,17.83C90.28,1,122.94,6.32,146.39,29.77s28.79,56.11,11.93,73C127.53,133.16,65.07,168,65.07,168s-28,3-43.74-12.76S8.15,111.09,8.15,111.09,42.11,50.95,73.42,17.83Z"/><ellipse class="cls-3" cx="122.24" cy="54.45" rx="23.49" ry="41.75" transform="translate(-2.7 102.39) rotate(-45)"/><path class="cls-1" d="M184.76,216.53a3.42,3.42,0,0,1-2.44-1L113,146.16a3.44,3.44,0,0,1,0-4.87l.65-.65a3.44,3.44,0,0,1,4.87,0L187.84,210a3.44,3.44,0,0,1,0,4.87l-.64.64A3.42,3.42,0,0,1,184.76,216.53Z"/><path class="cls-1" d="M116,134.63a8.42,8.42,0,0,0-6,2.47l-.65.65a8.44,8.44,0,0,0,0,11.94l69.37,69.37a8.44,8.44,0,0,0,11.94,0l.65-.65a8.44,8.44,0,0,0,0-11.94L122,137.1a8.42,8.42,0,0,0-6-2.47Z"/><path class="cls-4" d="M42.26,55.51S48,94.23,64.79,111.13s54.61,22.82,54.61,22.82L104.2,145.26s-33-6.28-49.58-22.95S31.23,71.93,31.23,71.93Z"/><path class="cls-5" d="M191.06,206.15l-72-72c14.28-9.93,28.65-20.94,39.26-31.42,16.85-16.85,11.51-49.52-11.93-73S90.28,1,73.42,17.83C62.85,29,52,43.29,42.19,57.29L36.71,51.8a8.9,8.9,0,0,0-12.59,0h0a8.9,8.9,0,0,0,0,12.59L32,72.3C18,93.6,8.15,111.09,8.15,111.09s-2.55,28.44,13.17,44.15S65.07,168,65.07,168s17.73-9.89,38.94-23.72l74.46,74.46a8.9,8.9,0,0,0,12.59,0h0A8.9,8.9,0,0,0,191.06,206.15Z"/><ellipse class="cls-6" cx="124.6" cy="52.08" rx="14.76" ry="26.24" transform="translate(-0.33 103.36) rotate(-45)"/><ellipse class="cls-3" cx="125.93" cy="50.76" rx="9.75" ry="17.33" transform="translate(0.99 103.91) rotate(-45)"/><ellipse class="cls-6" cx="126.44" cy="50.25" rx="5.77" ry="10.26" transform="translate(1.5 104.12) rotate(-45)"/></g></g></svg>