<svg xmlns="http://www.w3.org/2000/svg" viewBox="0 0 1157.18 1343.15"><defs><style>.cls-1{fill:#e87d34;}.cls-2{fill:#e54e35;}.cls-3{fill:#9b8c76;}.cls-4{fill:#ddcab1;}.cls-5{fill:#f7f4f0;}.cls-10,.cls-12,.cls-14,.cls-6,.cls-8{fill:none;stroke-linecap:round;stroke-linejoin:round;}.cls-6,.cls-8{stroke:#7a7167;}.cls-6{stroke-width:16px;}.cls-7{fill:#5b5853;}.cls-8{stroke-width:60px;}.cls-9{fill:#efb1b1;opacity:0.6;}.cls-10{stroke:#54524f;stroke-width:40px;}.cls-11{fill:#544e50;}.cls-12{stroke:#93898d;}.cls-12,.cls-14{stroke-width:10px;}.cls-13{fill:#eada47;}.cls-14{stroke:#544e50;}.cls-15{fill:#b2dfed;}.cls-16{fill:#7a7167;}</style></defs><title>start_image</title><g id="Layer_2" data-name="Layer 2"><g id="Start"><circle class="cls-1" cx="578.59" cy="578.59" r="578.59"/><circle class="cls-2" cx="578.59" cy="578.59" r="419.09"/><g id="hole"><polygon class="cls-3" points="708.68 797.29 582.43 783.47 582.43 782.87 579.68 783.17 576.93 782.87 576.93 783.47 450.68 797.29 376.24 1043.56 578.05 1043.56 581.31 1043.56 783.13 1043.56 708.68 797.29"/><path id="head" class="cls-3" d="M793.56,228.58C736,175.34,661.29,143.21,579.68,143.21S423.39,175.34,365.8,228.58c-70.94,65.59-115.93,163.2-115.93,272.2,0,113.33,20.9,228.17,96.77,293.69,56.34,48.65,155.42,63.89,233,63.89s176.7-15.24,233-63.89c75.87-65.51,96.77-180.36,96.77-293.69C909.49,391.78,864.5,294.17,793.56,228.58Z"/><ellipse class="cls-3" cx="578.06" cy="600.65" rx="356.45" ry="253.18"/><ellipse id="snout" class="cls-4" cx="579.68" cy="667.64" rx="258.78" ry="186.18"/><circle id="eyes" class="cls-5" cx="402.49" cy="462.86" r="28.87"/><circle id="eyeys" class="cls-5" cx="756.87" cy="462.86" r="28.87"/><g id="teeeth"><polygon class="cls-5" points="581.3 582.49 610.61 601.48 603.02 651.74 581.3 651.74 581.3 582.49"/><polygon class="cls-5" points="578.06 581.26 548.75 601.48 556.35 651.74 578.06 651.74 578.06 581.26"/></g><path class="cls-6" d="M582.41,574.44s5.31,35.24,56.4,35.24"/><path class="cls-6" d="M576.95,574.44s-5.31,35.24-56.4,35.24"/><path id="nose" class="cls-7" d="M579.68,501.89c-56.64,0-76.17,9.77-67.38,36.13s29.79,36.13,67.38,36.13,58.59-9.77,67.38-36.13S636.32,501.89,579.68,501.89Z"/><path class="cls-8" d="M718.26,356.5s23.87,24.9,77.23,32"/><path class="cls-8" d="M441.11,356.5s-23.87,24.9-77.23,32"/><path id="hair" class="cls-3" d="M543.93,145.7s-79.55-4.51-92-17c0,0,8.32,17.83,27.34,25,0,0-37.14-4.46-45.17-12.48,0,0,17.83,31.5,34.47,31.5"/><ellipse class="cls-9" cx="846.2" cy="535.89" rx="41.51" ry="22.96"/><ellipse class="cls-9" cx="313.16" cy="535.89" rx="41.51" ry="22.96"/><path class="cls-10" d="M934.52,600.65c0-33-8.9-64.52-25.07-93.43,0-2.15,0-4.29,0-6.44,0-109-45-206.61-115.93-272.2C736,175.34,661.29,143.21,579.68,143.21a307.73,307.73,0,0,0-38,2.35c-12.93-.84-78.55-5.61-89.79-16.85,0,0,8.32,17.83,27.34,25,0,0-37.14-4.46-45.17-12.48,0,0,10.71,18.91,23.28,27.43a325.92,325.92,0,0,0-91.55,60c-70.94,65.59-115.93,163.2-115.93,272.2,0,.3,0,.6,0,.9-18.2,30.4-28.27,63.85-28.27,99,0,75.59,46.66,143.43,120.61,189.82,1.47,1.34,2.91,2.7,4.42,4,24.18,20.88,56.25,35.59,91.11,45.6l-61.52,203.49H783.13L721.61,840.07c34.86-10,66.93-24.72,91.11-45.6,3.9-3.37,7.62-6.9,11.24-10.53C892.07,737.83,934.52,672.76,934.52,600.65Z"/><path class="cls-11" d="M793,698c.54-.93,1.08-1.86,1.59-2.82l18.6-35a76.6,76.6,0,0,0-31.65-103.6L680.38,502.8a76.6,76.6,0,0,0-103.6,31.65l-18.6,35c-.51,1-1,1.93-1.45,2.9A240.35,240.35,0,0,0,368.54,698.7C306.14,816,350.65,961.7,468,1024.11S731,1042,793.37,924.7A240.35,240.35,0,0,0,793,698Z"/><path class="cls-12" d="M551.57,638.87s-84.15,3.7-134.64,87.66"/><rect class="cls-13" x="877.79" y="439.47" width="70.28" height="15.37" rx="7.04" ry="7.04" transform="translate(-73.88 203.05) rotate(-12.2)"/><rect class="cls-13" x="844.01" y="393.1" width="58.43" height="15.37" rx="6.47" ry="6.47" transform="translate(63.32 917.7) rotate(-57.2)"/><rect class="cls-13" x="786.79" y="393.22" width="46.93" height="15.37" rx="5.8" ry="5.8" transform="translate(589.65 1277.58) rotate(-102.2)"/><rect class="cls-13" x="867.3" y="500.82" width="58.43" height="15.37" rx="6.47" ry="6.47" transform="translate(418.37 -404.57) rotate(32.8)"/><rect class="cls-13" x="815.65" y="526.72" width="46.93" height="15.37" rx="5.8" ry="5.8" transform="translate(1184.11 -398.7) rotate(77.8)"/><path class="cls-14" d="M731.08,541.54l18.45-35.18c18.48-35.25,65.63-35,65.63-35"/><circle id="eyeys-2" data-name="eyeys" class="cls-7" cx="756.87" cy="462.86" r="21.75"/><circle id="eyeys-3" data-name="eyeys" class="cls-7" cx="402.49" cy="462.86" r="21.75"/><path class="cls-15" d="M443.48,576.16c0,24.23-18.35,41-41,41s-41-14.08-41-41,41-65.08,41-65.08S443.48,551.93,443.48,576.16Z"/><path class="cls-3" d="M835.57,932.93c0,43.7-38.41,43.35-85.79,43.35S664,971.82,664,928.12,702.4,818,749.78,818,835.57,889.23,835.57,932.93Z"/><path class="cls-16" d="M727.94,826.54s-33.38-35.32-40.44-28.26,20.22,40.44,20.22,40.44Z"/><path class="cls-16" d="M705.2,848.21s-39.9-27.74-45.37-19.38,28.07,35.44,28.07,35.44Z"/><path class="cls-16" d="M684.82,869.94s-41.23-8.43-42.72.09,34.45,18.6,34.45,18.6Z"/><path class="cls-3" d="M337.07,932.93c0,43.7,38.41,43.35,85.79,43.35s85.79-4.46,85.79-48.16S470.25,818,422.87,818,337.07,889.23,337.07,932.93Z"/><path class="cls-16" d="M444.71,826.54s33.38-35.32,40.44-28.26-20.22,40.44-20.22,40.44Z"/><path class="cls-16" d="M467.44,848.21s39.9-27.74,45.37-19.38-28.07,35.44-28.07,35.44Z"/><path class="cls-16" d="M487.82,869.94s41.23-8.43,42.72.09-34.45,18.6-34.45,18.6Z"/></g><path d="M183.93,1064.91l3.11,1.42c2.21,2.62,2.92,4.84,2.11,6.65-5.19,11.49-10.45,23-16.54,34.12q-10.41,24.56-20.77,49.14a6.4,6.4,0,0,1-.33,3.69q-3,2.94-2.56,3.12c-10,25.48-19.81,54.83-31.94,75.71a99.07,99.07,0,0,0-5.25,10.16l-5.23.36-4.67-2.12c-1.35-2-2-3-3.35-5a92.11,92.11,0,0,1,4.79-8.8c12.32-21.17,23.3-49.8,33-75.41-14.7-6.53-22.12-10.09-22.44-10.15a130.51,130.51,0,0,1-6.77,16.2c-5.36,10.83-11.62,22-16.59,32.34-4.87,10.14-10.65,29.47-15.1,32.2-1.44.89-6.42-.57-8.3-1.5-2.17-1.09-3.58-3.34-4.19-6.76l2.35-4.63c4.32-8.48,8.34-17.72,12.35-25.75,4.37-8.76,9.91-18.25,14.66-27.49l3.52-6.94c4.6-10.84,9-22.05,14.37-32.29,11.13-21.28,27.75-44.67,34.83-64.7a35.2,35.2,0,0,1,1.8-4.76l5.16-.74,3.2,1.6c2.19,3.22,2.73,6,1.59,8.31-11.48,23.18-23.86,46.13-35.93,69.1l-3.9,7.91c-.06-.84-.09-1.26-.14-2.1.71.16,8.52,3.88,23.62,10.6q6.47-15,9.92-22.44l10.06-21.66a4.21,4.21,0,0,0,0-2.13l1.49-1.17c5.74-11.69,11.46-23.39,17-35.2Z"/><path d="M241.49,1103.88c20.15,8.66,5.77,63.31,3.12,78q-1.67,6.7-5.05,16.65l-.67,2a19.36,19.36,0,0,1-1.77,3.78q.26.64-.91,4.08l-.17.49q-1.17,3.44-1.77,3.78a17.24,17.24,0,0,1-.4,2.6c-7.34,20.84-17.67,51.85-41.78,59.06-5.79-.25-9.72-.79-11.76-1.55l-4.89-1.84c-20-12.15-16.56-39.89-11.29-59,2.54-8.16,3.82-12.24,6.39-20.39,13.3-31,29.09-67.73,57.94-87.64C233.74,1102.62,238.28,1102.5,241.49,1103.88ZM184,1195.18c-6.08,15.7-11.84,34.24-9.92,50.49,1.09,9.26,4.16,15.22,6.89,16.25l.61.23c6.06,2.27,11.44-1.21,16.43-7.36,10.87-13.39,19.22-34.2,25.54-51.37l3.48-9.78c7.85-22.38,10.44-45.9,12.29-69.39-.57-5.74-1.26-9.19-2.12-10.34a5.76,5.76,0,0,0-4.84,1.78C209.35,1137.07,194.84,1167.08,184,1195.18Z"/><path d="M306.66,1117l.52.15c1.91.57,3.3,2.38,4.21,5.43q-1.63,5.61-1.11,5.76l-.47-2.3c-6.93,31.23-16.49,64.09-22.79,93.25-2.3,10.62-4.62,22.88-7.84,34.07l-11.68,40.94q14.79,4.24,29.71,8a6.83,6.83,0,0,1,4.89,5l-.5,2c-.76,3-6,3.34-15.77.76s-19.27-5.22-28.84-8c-2.19-.64-3.95-2.56-5.25-5.75l1.08-3.61q1.79-6,2.09-5.88l.7-3.45,10.9-36.43c9.53-36.67,19-73.34,28.29-110.08,1.4-6.9,2.11-10.35,3.53-17.24C300.34,1116.82,303.11,1116,306.66,1117Z"/><path d="M397.74,1146.72l1.08.87c-2.49-.47-3.69-1-3.59-1.48,15.56,4.44,23.2,7.82,22.71,10.72l-.15.9c-1.7,3-4.1,4.18-7.17,3.64-6.18-1.72-9.26-2.6-15.4-4.41-.72-.14-3-.45-7-1l-.44,3.62c-4,21.67-7,43.54-10.18,65.33l.58.11a43.21,43.21,0,0,0,7.33.88c8.94,2.39,16,4,21.27,4.84,1.07,1.81,1.61,2.72,2.69,4.52l-.36,2.18c-.45,2.73-2.68,3.78-6.69,3.09-3.52-.6-9.59-2.62-16.8-4-4.77-.94-8.52-1.1-9.88-1.37l.1-.51c-5.28,26.91-8.79,54-11.58,81.31q.79.15.71.53c13.24,1.93,22.27,2.7,25.39,3.65a10.37,10.37,0,0,1,6.2,5.76l-.17,1c-.22,1.37-2.86,3.55-5.85,3.77-8,.61-20.74-2.89-30.58-4.47-7.73-1.24-11.29-5.39-10-11.41,3.23-27.41,6.93-54.79,12.58-81.82l3.41-16.26c3-20.29,8-42.47,9.94-60.78.49-4.74.15-8.59.42-9.86l4.75-2c2.88.6,4.32.9,7.2,1.48C390.23,1145.91,393.39,1146.32,397.74,1146.72Z"/><path d="M502,1169.69l2.32.18c1.91.15,3.67,1.62,5.3,4.43l-.09,1.29q-7,35.94-15.16,71.61l.35,3-.34,4.27c-7.23,13.69-8.1,33.25-10.73,48.2-2.31,13.11-4.46,26.41-8.25,39.27l-4,1.19-3.7-.35a8.86,8.86,0,0,1-5.45-5.37c6.07-29.35,11.66-58.86,18.57-88a580.48,580.48,0,0,0-33-63.95c-3.21-2.78-4.61-5.47-4.25-8l.14-1c.19-1.37,1.92-2.7,5.16-4l4.11.54q3.65,1.91,4.78,7.41a333.54,333.54,0,0,1,31,56.5l-5.25-.47c4.84-21.55,9.48-43.16,14.62-64.64Z"/><path d="M572.77,1248.23c12.82.61,20.07,3.12,20.11,6.15l0,1.56c0,1.39-1.74,3.06-5.3,5-7.76-1.49-13.44-2.39-16.82-2.33-9.37.18-19.2,1.43-28.79,2.25l-2.84-3.87.1-2.72c.13-3.37,7.48-5.05,22-5.51C561.29,1248.32,565.45,1247.89,572.77,1248.23Z"/><path d="M630.28,1161.46c20.61,18.22,32.79,56.73,45.26,80.33l-4.83.44c4.64-27.81,14-55.31,20.47-82.73l6.47-.78,3,4.2.86,5.65c2.49,26.06,4.85,52.37,8.3,78.09,4,29.68,11,59.57,17.07,89.14-2.61,1.44-3.92,2.16-6.54,3.58-6.5-4.44-7.94-13.41-10-20.88-5.85-20.95-8.91-42.85-12.34-64.29l-6.88-60.48,4.61-.53c-4.54,19.86-7.62,45.1-18.55,62.78-20.35-7.44-33-48-41-65.21l4.31-.26-.07-1q8.89,75.08,18.91,150c-2.55,1.33-3.82,2-6.38,3.3-6,.39-9.11-1.35-9.32-5.15-5.7-57.48-9.71-115.76-19.56-172.73C626.57,1163.53,627.81,1162.84,630.28,1161.46Z"/><path d="M752.28,1149.11c21.5-2.6,37.08,51,42.51,65.38q2,6.61,4.22,16.88l.44,2a19.51,19.51,0,0,1,.43,4.15q.55.42,1.31,4l.11.51q.76,3.55.43,4.16a17.35,17.35,0,0,1,1,2.44c4.41,21.61,11.53,53.49-5.31,72.1-5,2.75-8.65,4.3-10.76,4.69l-5.08.93c-23.25-.2-34.37-25.94-39.59-44.86-2-8.31-3-12.46-5-20.77-4.53-33.37-10-73,4.29-104.91C745.07,1152,748.9,1149.52,752.28,1149.11ZM750.16,1257c2.86,16.58,7.41,35.43,17.34,48.42,5.64,7.38,11.28,10.93,14.12,10.42l.63-.11c6.29-1.15,9.08-6.88,10.17-14.73,2.38-17.09-1.16-39.19-4.56-57.18l-2-10.18c-4.77-23.22-14.59-44.74-25-65.86-3.42-4.64-5.76-7.24-7.07-7.79a5.71,5.71,0,0,0-3.19,4C742,1194.11,745,1227.27,750.16,1257Z"/><path d="M814.48,1127l.52-.13c1.92-.49,4,.34,6.39,2.5q1.48,5.65,2,5.51l-1.58-1.73c10.09,30.35,18.78,63.46,28.35,91.71,3.49,10.29,7.79,22,10.77,33.26l11,41.12q14.88-4,29.64-8.37a6.86,6.86,0,0,1,6.78,1.76l.6,2c.9,3-3.47,6-13.17,8.77s-19.21,5.42-28.87,7.92c-2.2.57-4.69-.17-7.44-2.24l-.93-3.65q-1.53-6-1.22-6.12l-1.17-3.32-9.37-36.85c-10.66-36.35-21.33-72.71-32.27-109-2.34-6.64-3.5-10-5.82-16.61C809,1130.06,810.9,1127.89,814.48,1127Z"/><path d="M908.24,1105.53l1.38.18c-2.41.88-3.7,1.07-3.88.59,15.79-4.25,24.19-5.33,25.26-2.59l.33.85c0,3.42-1.41,5.71-4.35,6.84-6.26,1.73-9.39,2.57-15.65,4.2-.7.25-2.87,1.19-6.53,2.77l1.48,3.33c7.75,20.62,16.42,40.92,24.87,61.26l.56-.2a44.09,44.09,0,0,0,6.81-3c9-2.58,16-4.92,21-6.88l4.68,2.48.81,2.05c1,2.57-.38,4.63-4.22,6.12-3.37,1.31-9.69,2.73-16.69,5.24-4.63,1.66-8,3.47-9.28,3.95l-.18-.49c9.3,25.79,20.26,50.87,31.91,75.68q.76-.28.9.09c12.48-5.2,20.74-9.23,23.94-10a10.53,10.53,0,0,1,8.37,1.71l.38,1c.51,1.29-.66,4.52-3.14,6.27-6.65,4.68-19.5,8.28-28.87,12-7.35,2.94-12.56,1.22-14.59-4.58-11.34-25.17-22.26-50.54-31.3-76.64l-5.43-15.7c-7.89-18.92-14.94-40.58-22.73-57.23-2-4.31-4.3-7.45-4.72-8.67,1.23-1.68,1.84-2.52,3.06-4.21,2.8-1,4.2-1.46,7-2.45C901.31,1108.73,904.26,1107.45,908.24,1105.53Z"/><path d="M1011.19,1070.78l2.13-1.07c1.75-.88,4.07-.55,7,1l.59,1.16q12.47,34.44,23.73,69.27l1.87,2.4,1.91,3.83c.72,15.44,10.11,32.77,15.51,46.91,4.75,12.43,9.75,25,13.07,38l-2.9,3.13-3.43,1.64a9,9,0,0,1-7.57-1.73c-9.86-28.31-20.22-56.51-29.25-85.1a591.56,591.56,0,0,0-62-37.43c-4.24-.71-6.86-2.28-7.87-4.67l-.41-1c-.54-1.27.28-3.31,2.43-6.13l3.87-1.68q4.18-.27,8,3.84c19.63,9.32,38.72,19.46,56.47,32.08l-4.85,2.36c-6.9-21-14-41.93-20.6-63Z"/></g></g></svg>