<svg xmlns="http://www.w3.org/2000/svg" viewBox="0 0 363.31 363.31"><defs><style>.cls-1{fill:#ea9232;}.cls-2{fill:#e87d34;}.cls-3{fill:#e54e35;}.cls-4{fill:#54524f;}.cls-5{fill:#6d655a;}.cls-6{fill:#9b8c76;}.cls-7{fill:#ddcab1;}.cls-8{fill:#f7f4f0;}.cls-12,.cls-14,.cls-16,.cls-9{fill:none;stroke-linecap:round;stroke-linejoin:round;}.cls-9{stroke:#7a7167;}.cls-12,.cls-9{stroke-width:16px;}.cls-10{fill:#5b5853;}.cls-11{fill:#efb1b1;opacity:0.6;}.cls-12{stroke:#54524f;}.cls-13{fill:#544e50;}.cls-14{stroke:#93898d;}.cls-14,.cls-16{stroke-width:10px;}.cls-15{fill:#eada47;}.cls-16{stroke:#544e50;}.cls-17{fill:#b2dfed;}.cls-18{fill:#7a7167;}</style></defs><title>app_icon</title><g id="Layer_2" data-name="Layer 2"><g id="app_logo" data-name="app logo"><g id="background"><rect class="cls-1" width="363.31" height="363.31" rx="60.7" ry="60.7"/><path class="cls-2" d="M224,0H139.33A186.75,186.75,0,0,0,0,139.33V224A186.75,186.75,0,0,0,139.33,363.31H224A186.75,186.75,0,0,0,363.31,224V139.33A186.75,186.75,0,0,0,224,0Z"/><circle class="cls-3" cx="181.65" cy="181.65" r="142.42"/></g><g id="hole"><ellipse class="cls-4" cx="181.65" cy="301.65" rx="127.84" ry="45.5"/><path class="cls-5" d="M292.56,279l-1.57-.95q-3.2-1.88-6.89-3.63t-7.81-3.37q-2.06-.81-4.23-1.58T267.61,268q-4.54-1.47-9.47-2.78-3.69-1-7.58-1.87c-5.19-1.18-10.63-2.24-16.29-3.15a333.8,333.8,0,0,0-52.61-4,333.81,333.81,0,0,0-52.61,4c-5.66.91-11.11,2-16.29,3.15q-3.89.89-7.58,1.87-4.92,1.31-9.47,2.78-2.27.73-4.44,1.51T87,271.06q-4.13,1.62-7.81,3.37t-6.89,3.63l-1.57.95c-10.78,6.67-16.94,14.4-16.94,22.65a17.47,17.47,0,0,0,1.51,7c9.46-21.81,62.42-38.5,126.34-38.5s116.87,16.7,126.34,38.5a17.47,17.47,0,0,0,1.51-7C309.49,293.41,303.33,285.67,292.56,279Z"/></g><g id="mole"><polygon class="cls-6" points="224.34 249.45 182.94 244.92 182.94 244.72 182.04 244.82 181.14 244.72 181.14 244.92 139.74 249.45 115.33 330.21 181.51 330.21 182.58 330.21 248.75 330.21 224.34 249.45"/><path id="head" class="cls-6" d="M252.18,63C233.29,45.51,208.8,35,182,35s-51.25,10.54-70.13,28c-23.26,21.51-38,53.51-38,89.26,0,37.16,6.85,74.82,31.73,96.3,18.47,16,51,20.95,76.41,20.95s57.94-5,76.41-20.95c24.88-21.48,31.73-59.14,31.73-96.3C290.19,116.48,275.44,84.47,252.18,63Z"/><ellipse class="cls-6" cx="181.51" cy="184.97" rx="116.88" ry="83.02"/><ellipse id="snout" class="cls-7" cx="182.04" cy="206.94" rx="84.86" ry="61.05"/><circle id="eyes" class="cls-8" cx="123.94" cy="139.79" r="9.47"/><circle id="eyeys" class="cls-8" cx="240.15" cy="139.79" r="9.47"/><g id="teeeth"><polygon class="cls-8" points="182.57 179.02 192.19 185.24 189.7 201.72 182.57 201.72 182.57 179.02"/><polygon class="cls-8" points="181.51 178.61 171.9 185.24 174.39 201.72 181.51 201.72 181.51 178.61"/></g><path class="cls-9" d="M182.94,176.38s1.74,11.55,18.49,11.55"/><path class="cls-9" d="M181.15,176.38s-1.74,11.55-18.49,11.55"/><path id="nose" class="cls-10" d="M182,152.59c-18.57,0-25,3.2-22.09,11.85s9.77,11.85,22.09,11.85,19.21-3.2,22.09-11.85S200.62,152.59,182,152.59Z"/><path class="cls-9" d="M227.48,104.91s7.83,8.16,25.32,10.48"/><path class="cls-9" d="M136.6,104.91s-7.83,8.16-25.32,10.48"/><path id="hair" class="cls-6" d="M170.32,35.79s-26.08-1.48-30.18-5.57a17.55,17.55,0,0,0,9,8.18s-12.18-1.46-14.81-4.09c0,0,5.85,10.33,11.3,10.33"/><ellipse class="cls-11" cx="269.44" cy="163.74" rx="13.61" ry="7.53"/><ellipse class="cls-11" cx="94.65" cy="163.74" rx="13.61" ry="7.53"/><path class="cls-12" d="M298.4,185a62.35,62.35,0,0,0-8.22-30.64c0-.7,0-1.41,0-2.11,0-35.74-14.75-67.75-38-89.26C233.29,45.51,208.8,35,182,35a100.91,100.91,0,0,0-12.46.77c-4.24-.27-25.76-1.84-29.44-5.52a17.55,17.55,0,0,0,9,8.18s-12.18-1.46-14.81-4.09c0,0,3.51,6.2,7.63,9a106.87,106.87,0,0,0-30,19.66c-23.26,21.51-38,53.51-38,89.26,0,.1,0,.2,0,.3A62.77,62.77,0,0,0,64.63,185c0,24.79,15.3,47,39.55,62.24.48.44,1,.88,1.45,1.31,7.93,6.85,18.45,11.67,29.88,15l-20.17,66.73H248.75l-20.17-66.73c11.43-3.28,21.95-8.11,29.88-15,1.28-1.11,2.5-2.26,3.69-3.45C284.48,230,298.4,208.62,298.4,185Z"/><path class="cls-13" d="M252,216.9c.18-.3.36-.61.52-.92l6.1-11.47a25.12,25.12,0,0,0-10.38-34l-33.17-17.65a25.12,25.12,0,0,0-34,10.38L175,174.73c-.17.31-.32.63-.47.95A78.89,78.89,0,1,0,252,216.9Z"/><path class="cls-14" d="M172.82,197.5s-27.59,1.21-44.15,28.75"/><rect class="cls-15" x="279.79" y="132.12" width="23.05" height="5.04" rx="2.31" ry="2.31" transform="translate(-21.88 64.61) rotate(-12.2)"/><rect class="cls-15" x="268.72" y="116.91" width="19.16" height="5.04" rx="2.12" ry="2.12" transform="translate(27.15 288.67) rotate(-57.2)"/><rect class="cls-15" x="249.95" y="116.95" width="15.39" height="5.04" rx="1.9" ry="1.9" transform="translate(195.33 396.56) rotate(-102.2)"/><rect class="cls-15" x="276.36" y="152.24" width="19.16" height="5.04" rx="2.12" ry="2.12" transform="matrix(0.84, 0.54, -0.54, 0.84, 129.41, -130.22)"/><rect class="cls-15" x="259.42" y="160.73" width="15.39" height="5.04" rx="1.9" ry="1.9" transform="matrix(0.21, 0.98, -0.98, 0.21, 370.22, -132.33)"/><path class="cls-16" d="M231.69,165.59l6-11.54c6.06-11.56,21.52-11.49,21.52-11.49"/><circle id="eyeys-2" data-name="eyeys" class="cls-10" cx="240.15" cy="139.79" r="7.13"/><circle id="eyeys-3" data-name="eyeys" class="cls-10" cx="123.94" cy="139.79" r="7.13"/><path class="cls-17" d="M137.38,176.94a13.12,13.12,0,0,1-13.44,13.44c-7.42,0-13.44-4.62-13.44-13.44s13.44-21.34,13.44-21.34S137.38,169,137.38,176.94Z"/><path class="cls-6" d="M266,293.93c0,14.33-12.6,14.21-28.13,14.21s-28.13-1.46-28.13-15.79,12.6-36.1,28.13-36.1S266,279.6,266,293.93Z"/><path class="cls-18" d="M230.66,259s-10.94-11.58-13.26-9.27S224,263,224,263Z"/><path class="cls-18" d="M223.2,266.15s-13.08-9.1-14.88-6.36,9.21,11.62,9.21,11.62Z"/><path class="cls-18" d="M216.52,273.28s-13.52-2.76-14,0,11.3,6.1,11.3,6.1Z"/><path class="cls-6" d="M102.49,293.93c0,14.33,12.6,14.21,28.13,14.21s28.13-1.46,28.13-15.79-12.6-36.1-28.13-36.1S102.49,279.6,102.49,293.93Z"/><path class="cls-18" d="M137.78,259s10.94-11.58,13.26-9.27S144.41,263,144.41,263Z"/><path class="cls-18" d="M145.24,266.15s13.08-9.1,14.88-6.36-9.21,11.62-9.21,11.62Z"/><path class="cls-18" d="M151.92,273.28s13.52-2.76,14,0-11.3,6.1-11.3,6.1Z"/></g></g></g></svg>