<svg xmlns="http://www.w3.org/2000/svg" viewBox="0 0 1200 1920"><defs><style>.cls-1{fill:#9bb53e;}.cls-2{fill:#8ba033;}</style></defs><title>game_background</title><g id="Layer_2" data-name="Layer 2"><g id="Game_play" data-name="Game play"><g id="BACKGROUND"><rect class="cls-1" width="1200" height="1920"/><path class="cls-2" d="M446.26,264.68a.66.66,0,0,0,.66-.65c.32-13.78,3.63-26,5.51-35.21,1.7-8.41,2.44-17.49,5.6-25.38a.92.92,0,0,0-1.5-1,77.56,77.56,0,0,0-12.17,17.28c-5.25,9.92-11,25.64-8.31,44.16a.92.92,0,0,0,.91.79h9.31Z"/><path class="cls-2" d="M411,232.51a.92.92,0,0,0-.87,1.21c4.88,14.64.05,29.59,0,29.74a.92.92,0,0,0,.87,1.21h10.11a.92.92,0,0,0,.92-.92c0-20.36-9.95-30.55-10.38-31A.92.92,0,0,0,411,232.51Z"/><path class="cls-2" d="M426.8,264.68h4.36a.57.57,0,0,0,.57-.65,73.81,73.81,0,0,1,1.77-28.23.58.58,0,0,0,0-.3c-4.43-15.43-11.31-22.51-11.74-22.93a.92.92,0,0,0-1.55.83,128.89,128.89,0,0,1,2.14,28.83.55.55,0,0,0,0,.22,62.32,62.32,0,0,1,3.84,21.67A.57.57,0,0,0,426.8,264.68Z"/><path class="cls-2" d="M475.58,227.22c-4.47-7-8.3-9.61-8.46-9.72a.92.92,0,0,0-1.38,1.06c4.93,14.79,0,44.75,0,45.05a.92.92,0,0,0,.91,1.07h20.22a.92.92,0,0,0,.91-1C485.1,245.16,479.67,233.64,475.58,227.22Z"/><path class="cls-2" d="M468.95,213.62a26,26,0,0,1,3.48-10,.92.92,0,0,0-1.44-1.14,59.79,59.79,0,0,0-8,12.06,5.15,5.15,0,0,1,6-.91Z"/><path class="cls-2" d="M491.86,264.06a.72.72,0,0,0,.71.62h4.36a.92.92,0,0,0,.82-.51,1,1,0,0,0,0-.86c-9.83-19.72-5-49.65-5-49.95a.92.92,0,0,0-1.42-.92,42,42,0,0,0-11.91,12.91C485.51,235,489.67,249.09,491.86,264.06Z"/><path class="cls-2" d="M460.87,264.68a.7.7,0,0,0,.69-.59c.64-4.36,4.34-31.48.11-44.17v0a.7.7,0,0,0-1.3-.08,113.87,113.87,0,0,0-9.16,43.93.92.92,0,0,0,.92.93h8.76Z"/><path class="cls-2" d="M768.11,347.91a.55.55,0,0,0,.55-.54c.27-11.51,3-21.7,4.6-29.42,1.42-7,2-14.62,4.68-21.21a.77.77,0,0,0-1.26-.83,64.81,64.81,0,0,0-10.17,14.44c-4.39,8.29-9.16,21.42-6.95,36.9a.77.77,0,0,0,.76.66h7.78Z"/><path class="cls-2" d="M738.65,321a.77.77,0,0,0-.73,1c4.08,12.23,0,24.73,0,24.85a.77.77,0,0,0,.73,1h8.45a.77.77,0,0,0,.77-.77c0-17-8.31-25.53-8.67-25.89A.77.77,0,0,0,738.65,321Z"/><path class="cls-2" d="M751.85,347.91h3.65a.48.48,0,0,0,.47-.55,61.68,61.68,0,0,1,1.48-23.59.48.48,0,0,0,0-.25c-3.7-12.89-9.45-18.81-9.81-19.16a.77.77,0,0,0-1.3.69,107.7,107.7,0,0,1,1.79,24.09.46.46,0,0,0,0,.19,52.08,52.08,0,0,1,3.21,18.11A.48.48,0,0,0,751.85,347.91Z"/><path class="cls-2" d="M792.61,316.61c-3.73-5.86-6.94-8-7.07-8.12a.77.77,0,0,0-1.16.88c4.12,12.36,0,37.4,0,37.65a.77.77,0,0,0,.76.89H802a.77.77,0,0,0,.76-.88C800.57,331.61,796,322,792.61,316.61Z"/><path class="cls-2" d="M787.07,305.24a21.74,21.74,0,0,1,2.9-8.36.77.77,0,0,0-1.2-1A50,50,0,0,0,782.08,306a4.31,4.31,0,0,1,5-.76Z"/><path class="cls-2" d="M806.22,347.4a.6.6,0,0,0,.59.51h3.65a.76.76,0,0,0,.69-.43.81.81,0,0,0,0-.72C802.91,330.29,807,305.28,807,305a.77.77,0,0,0-1.18-.77A35.06,35.06,0,0,0,795.86,315C800.91,323.13,804.38,334.88,806.22,347.4Z"/><path class="cls-2" d="M780.32,347.91a.58.58,0,0,0,.58-.5c.53-3.64,3.63-26.3.09-36.91v0a.58.58,0,0,0-1.09-.06,95.15,95.15,0,0,0-7.66,36.71.77.77,0,0,0,.77.78h7.32Z"/><path class="cls-2" d="M140.31,359.73a.3.3,0,0,0,.33-.24c.16-5.21,1.84-9.82,2.79-13.32.86-3.18,1.24-6.62,2.83-9.6a.31.31,0,0,0-.18-.42.58.58,0,0,0-.26-.06.56.56,0,0,0-.33.1,31.61,31.61,0,0,0-6.16,6.54c-2.66,3.75-5.55,9.7-4.21,16.71a.44.44,0,0,0,.46.3h4.71Z"/><path class="cls-2" d="M122.47,347.56a.59.59,0,0,0-.24.05.31.31,0,0,0-.2.41c2.47,5.54,0,11.2,0,11.25a.28.28,0,0,0,.06.32.53.53,0,0,0,.38.14h5.12c.26,0,.47-.16.47-.35a15,15,0,0,0-5.25-11.72A.55.55,0,0,0,122.47,347.56Z"/><path class="cls-2" d="M130.47,359.73h2.21c.18,0,.31-.12.29-.25a21.13,21.13,0,0,1,.9-10.68.17.17,0,0,0,0-.11,20.27,20.27,0,0,0-5.94-8.68.55.55,0,0,0-.33-.1.6.6,0,0,0-.22,0,.33.33,0,0,0-.24.37,36.77,36.77,0,0,1,1.08,10.91.16.16,0,0,0,0,.08,18.41,18.41,0,0,1,1.95,8.2A.26.26,0,0,0,130.47,359.73Z"/><path class="cls-2" d="M155.15,345.56a15.3,15.3,0,0,0-4.28-3.68.58.58,0,0,0-.26-.06.58.58,0,0,0-.28.07.3.3,0,0,0-.16.39c2.49,5.59,0,16.93,0,17a.29.29,0,0,0,.1.28.54.54,0,0,0,.35.12h10.23a.54.54,0,0,0,.35-.12.29.29,0,0,0,.11-.28A29.39,29.39,0,0,0,155.15,345.56Z"/><path class="cls-2" d="M151.8,340.42a8.38,8.38,0,0,1,1.76-3.79.29.29,0,0,0-.1-.47.57.57,0,0,0-.29-.08.55.55,0,0,0-.34.11,23.78,23.78,0,0,0-4.05,4.56l.24-.15A3.39,3.39,0,0,1,151.8,340.42Z"/><path class="cls-2" d="M163.39,359.5a.35.35,0,0,0,.36.23H166a.5.5,0,0,0,.42-.19.28.28,0,0,0,0-.32c-5-7.46-2.53-18.78-2.51-18.9a.32.32,0,0,0-.21-.35.6.6,0,0,0-.51,0,19.25,19.25,0,0,0-6,4.88C160.18,348.51,162.28,353.83,163.39,359.5Z"/><path class="cls-2" d="M147.71,359.73a.34.34,0,0,0,.35-.22c.32-1.65,2.2-11.91.05-16.71h0a.4.4,0,0,0-.66,0,34.17,34.17,0,0,0-4.64,16.62.31.31,0,0,0,.13.25.56.56,0,0,0,.33.1h4.43Z"/><path class="cls-2" d="M1102.8,343.95a.33.33,0,0,0,.33-.33c.16-7,1.84-13.14,2.79-17.82.86-4.26,1.24-8.85,2.83-12.84a.47.47,0,0,0-.76-.5,39.25,39.25,0,0,0-6.16,8.75,36.83,36.83,0,0,0-4.21,22.35.47.47,0,0,0,.46.4h4.71Z"/><path class="cls-2" d="M1085,327.67a.47.47,0,0,0-.44.61c2.47,7.41,0,15,0,15.05a.47.47,0,0,0,.44.61h5.12a.47.47,0,0,0,.47-.47c0-10.3-5-15.46-5.25-15.68A.46.46,0,0,0,1085,327.67Z"/><path class="cls-2" d="M1093,343.95h2.21a.29.29,0,0,0,.29-.33,37.35,37.35,0,0,1,.9-14.29.29.29,0,0,0,0-.15c-2.24-7.81-5.72-11.39-5.94-11.61a.47.47,0,0,0-.78.42,65.23,65.23,0,0,1,1.08,14.59.28.28,0,0,0,0,.11,31.54,31.54,0,0,1,1.95,11A.29.29,0,0,0,1093,343.95Z"/><path class="cls-2" d="M1117.64,325a17.22,17.22,0,0,0-4.28-4.92.47.47,0,0,0-.7.53c2.49,7.48,0,22.65,0,22.8a.47.47,0,0,0,.46.54h10.23a.46.46,0,0,0,.46-.53C1122.46,334.07,1119.71,328.24,1117.64,325Z"/><path class="cls-2" d="M1114.29,318.11A13.17,13.17,0,0,1,1116,313a.47.47,0,0,0-.73-.58,30.26,30.26,0,0,0-4.05,6.1l.24-.21A2.64,2.64,0,0,1,1114.29,318.11Z"/><path class="cls-2" d="M1125.88,343.64a.36.36,0,0,0,.36.31h2.21a.46.46,0,0,0,.42-.26.49.49,0,0,0,0-.43c-5-10-2.53-25.13-2.51-25.28a.47.47,0,0,0-.72-.46,21.23,21.23,0,0,0-6,6.53C1122.67,328.94,1124.77,336.06,1125.88,343.64Z"/><path class="cls-2" d="M1110.2,343.95a.35.35,0,0,0,.35-.3c.32-2.21,2.2-15.93.05-22.35h0a.35.35,0,0,0-.66,0,57.63,57.63,0,0,0-4.64,22.23.47.47,0,0,0,.47.47h4.43Z"/></g></g></g></svg>