<svg xmlns="http://www.w3.org/2000/svg" viewBox="0 0 184.96 184.96"><defs><style>.cls-1{fill:#777;opacity:0.7;}.cls-2{fill:#c1c1c1;}.cls-3{fill:#a5a5a5;}.cls-4{fill:none;stroke:#777;stroke-linecap:round;stroke-linejoin:round;stroke-width:10px;}</style></defs><title>game_dead_immunity</title><g id="Layer_2" data-name="Layer 2"><g id="Game_play" data-name="Game play"><g id="DEAD_IMMUNITY"><rect class="cls-1" width="184.96" height="184.96" rx="64.69" ry="64.69"/><path class="cls-2" d="M92.48,36.74V148.22s18.76-5.75,32.84-30.39,15.27-61.38,15.27-61.38C124.63,57.55,108.59,50.25,92.48,36.74Z"/><path class="cls-3" d="M92.48,36.74V148.22s-18.76-5.75-32.84-30.39S44.37,56.44,44.37,56.44C60.33,57.55,76.37,50.25,92.48,36.74Z"/><path class="cls-4" d="M92.48,36.74C76.37,50.25,60.33,57.55,44.37,56.44c0,0,1.19,36.73,15.27,61.38s32.84,30.39,32.84,30.39,18.76-5.75,32.84-30.39,15.27-61.38,15.27-61.38C124.63,57.55,108.59,50.25,92.48,36.74Z"/></g></g></g></svg>