<svg xmlns="http://www.w3.org/2000/svg" viewBox="0 0 1200 1430.05"><defs><style>.cls-1{fill:red;opacity:0;}.cls-2{fill:#9b9b9b;opacity:0.3;}.cls-3{font-size:120px;font-family:BigNoodleTitling, BigNoodleTitling;}.cls-4{letter-spacing:-0.01em;}.cls-5{fill:#544e50;}.cls-6,.cls-8{fill:none;stroke-linecap:round;stroke-linejoin:round;stroke-width:10px;}.cls-6{stroke:#93898d;}.cls-7{fill:#eada47;}.cls-8{stroke:#544e50;}</style></defs><title>game_bomb_overlay</title><g id="Layer_2" data-name="Layer 2"><g id="Game_play" data-name="Game play"><g id="overlayBombed"><rect class="cls-1" width="1200" height="1430.05"/><path class="cls-2" d="M1046.11,840.69c0-29.38-25.44-56.35-67.83-77.45,13.65-18.29,21.55-39.92,21.55-63.1,0-65.67-63.33-118.91-141.45-118.91a165.67,165.67,0,0,0-46.09,6.46c-31.23-31.88-80.71-52.49-136.43-52.49a220.62,220.62,0,0,0-34.5,2.69c-15.46-55.63-70.73-96.79-136.54-96.79-77.1,0-139.72,56.49-140.83,126.55-86.85,5.87-155,62-155,130.33a102.08,102.08,0,0,0,.71,11.93c-61.59,16.46-103.33,48.27-103.33,84.83,0,41,52.6,76.1,126.83,90.17,2.7,78.23,91.92,141.06,201.6,141.06,49.91,0,95.57-13,130.78-34.56,23.73,21.27,57.44,34.56,94.83,34.56,52.34,0,97.46-26,118.11-63.58C929,955.65,1046.11,903.74,1046.11,840.69ZM532.74,754q2.64-4.28,4.88-8.72,2.37,2.51,4.89,4.93Q537.52,752.1,532.74,754Z"/><path class="cls-2" d="M421.45,925.36c20.65,37.54,65.77,63.58,118.11,63.58,37.39,0,71.09-13.29,94.83-34.56,35.21,21.55,80.88,34.56,130.78,34.56,109.68,0,198.9-62.83,201.6-141.06,74.24-14.07,126.83-49.13,126.83-90.17,0-36.55-41.74-68.37-103.33-84.83A102.08,102.08,0,0,0,991,661c0-68.36-68.12-124.46-155-130.33-1.11-70.06-63.73-126.55-140.83-126.55-65.81,0-121.08,41.16-136.54,96.79a220.62,220.62,0,0,0-34.5-2.69c-55.72,0-105.2,20.6-136.43,52.49a165.67,165.67,0,0,0-46.09-6.46c-78.12,0-141.45,53.24-141.45,118.91,0,23.18,7.9,44.81,21.55,63.1-42.39,21.1-67.83,48.07-67.83,77.45C153.89,866.71,271,918.62,421.45,925.36Zm236-212.14q2.52-2.42,4.89-4.93,2.24,4.44,4.88,8.72Q662.49,715.07,657.49,713.22Z"/><text class="cls-3" transform="translate(295.63 913.02)"><tspan class="cls-4">Y</tspan><tspan x="40.8" y="0">OU GOT BOMBED!</tspan></text><path class="cls-5" d="M659.84,651.16c.22-.37.43-.75.64-1.13L668,636a30.75,30.75,0,0,0-12.71-41.59L614.63,572.8A30.75,30.75,0,0,0,573,585.5l-7.47,14c-.2.38-.39.77-.58,1.16a96.59,96.59,0,1,0,94.85,50.46Z"/><path class="cls-6" d="M562.92,627.42s-33.78,1.48-54.05,35.19"/><rect class="cls-7" x="693.88" y="547.37" width="28.21" height="6.17" rx="2.83" ry="2.83" transform="translate(-100.35 162.07) rotate(-12.2)"/><rect class="cls-7" x="680.32" y="528.76" width="23.46" height="6.17" rx="2.6" ry="2.6" transform="matrix(0.54, -0.84, 0.84, 0.54, -129.88, 825.47)"/><rect class="cls-7" x="657.34" y="528.81" width="18.84" height="6.17" rx="2.33" ry="2.33" transform="translate(287.81 1296.01) rotate(-102.2)"/><rect class="cls-7" x="689.67" y="572" width="23.46" height="6.17" rx="2.6" ry="2.6" transform="translate(423.33 -288.26) rotate(32.8)"/><rect class="cls-7" x="668.93" y="582.4" width="18.84" height="6.17" rx="2.33" ry="2.33" transform="translate(1107.24 -201.29) rotate(77.8)"/><path class="cls-8" d="M635,588.35l7.4-14.12c7.42-14.15,26.35-14.07,26.35-14.07"/></g></g></g></svg>