<svg xmlns="http://www.w3.org/2000/svg" viewBox="0 0 280.95 421.54"><defs><style>.cls-1{fill:#9b8c76;}.cls-2{fill:#ddcab1;}.cls-3{fill:#f7f4f0;}.cls-11,.cls-4,.cls-7,.cls-9{fill:none;}.cls-4{stroke:#7a7167;}.cls-11,.cls-12,.cls-4,.cls-7,.cls-9{stroke-linecap:round;stroke-linejoin:round;}.cls-4,.cls-9{stroke-width:16px;}.cls-5{fill:#5b5853;}.cls-6{fill:#efb1b1;opacity:0.6;}.cls-7{stroke:#5b5853;}.cls-12,.cls-7{stroke-width:10px;}.cls-8{fill:#e8c4a6;}.cls-9{stroke:#54524f;}.cls-10{opacity:0.5;}.cls-11{stroke:#fff;stroke-width:5px;}.cls-12{fill:#eada47;stroke:#eada47;}</style></defs><title>game_sadMole</title><g id="Layer_2" data-name="Layer 2"><g id="Game_play" data-name="Game play"><g id="SAD_MOLE" data-name="SAD MOLE"><polygon class="cls-1" points="194.69 317.56 145.49 312.18 145.49 311.94 144.42 312.06 143.35 311.94 143.35 312.18 94.15 317.56 65.14 413.54 143.79 413.54 145.06 413.54 223.71 413.54 194.69 317.56"/><path id="head" class="cls-1" d="M227.77,95.93c-22.44-20.75-51.55-33.27-83.35-33.27S83.51,75.18,61.07,95.93C33.42,121.49,15.89,159.53,15.89,202c0,44.17,8.15,88.92,37.71,114.45,22,19,60.57,24.9,90.82,24.9s68.86-5.94,90.82-24.9C264.81,290.93,273,246.17,273,202,273,159.53,255.42,121.49,227.77,95.93Z"/><ellipse class="cls-1" cx="144.42" cy="269.95" rx="127.8" ry="74.17"/><ellipse id="snout" class="cls-2" cx="144.42" cy="297.05" rx="100.85" ry="44.31"/><g id="teeeth"><polygon class="cls-3" points="145.05 293.85 156.48 301.25 153.52 320.84 145.05 320.84 145.05 293.85"/><polygon class="cls-3" points="143.79 293.37 132.37 301.25 135.33 320.84 143.79 320.84 143.79 293.37"/></g><path class="cls-4" d="M145.49,290.72s2.07,13.73,22,13.73"/><path class="cls-4" d="M143.36,290.72s-2.07,13.73-22,13.73"/><path id="nose" class="cls-5" d="M144.42,262.44c-22.07,0-29.68,3.81-26.26,14.08s11.61,14.08,26.26,14.08,22.83-3.81,26.26-14.08S166.5,262.44,144.42,262.44Z"/><path class="cls-4" d="M196,206.89"/><path class="cls-4" d="M92.82,206.89"/><path id="hair" class="cls-1" d="M130.25,63.63s-31-1.76-35.86-6.62A20.86,20.86,0,0,0,105,66.73S90.57,65,87.44,61.87c0,0,6.95,12.28,13.43,12.28"/><ellipse class="cls-6" cx="248.29" cy="265.69" rx="16.18" ry="8.95"/><ellipse class="cls-6" cx="40.56" cy="265.69" rx="16.18" ry="8.95"/><polyline class="cls-7" points="220.07 225.55 201.89 233.46 220.07 239.11"/><polyline class="cls-7" points="68.78 225.55 86.96 233.46 68.78 239.11"/><path class="cls-8" d="M246.71,122.65c-12,12-25.79,6.29-37.82-5.73s-17.76-25.79-5.73-37.82a30.8,30.8,0,1,1,43.55,43.55Z"/><g id="hair-2" data-name="hair"><path class="cls-1" d="M226.76,130.55c3.59-3,4.37-9.1,4.37-9.1-.6,1.4-2.59,2.77-5.06,4a44.39,44.39,0,0,0,6.44-8.5c-3.13,3.13-17.6,4.86-17.6,4.86a20.86,20.86,0,0,0,10.65-9.73c-1.94,1.94-8,3.38-14.66,4.42,1.16-2.19,1.92-4.13,1.92-4.13-1.78,2.61-9.67,3.85-9.67,3.85,4.09-2.24,6-8.1,6-8.1-.86,1.26-3.08,2.22-5.73,3a44.39,44.39,0,0,0,7.95-7.11c-3.67,2.47-18.21,1.4-18.21,1.4a20.86,20.86,0,0,0,12.32-7.51c-1.31.89-4,1.34-7.26,1.52,2.47-.73,6.06-5.13,6.06-5.13-1.72,1.35-7.2.52-7.2.52,3.17-.62,5.68-4.09,5.68-4.09-2.68,2.1-14-.78-14-.78l8.38,9.52h.07c-11.07.4-28.18-1.94-28.18-1.94l25.55,15.19c-2.89.35-5,.47-5,.47l8.17,4.92c-4.68.43-8,.62-8,.62l28,10c-2.77.89-4.86,1.43-4.86,1.43L230,136.4c3.47-.57,5.5-11.49,5.5-11.49C234.27,127.82,226.76,130.55,226.76,130.55Z"/><path class="cls-1" d="M207.14,86.4c-2.94.86-12.33-2.89-12.33-2.89a14.47,14.47,0,0,0,9.72-2.38c-4.58,1.34-24-7.89-24-7.89l14.39,16.17C198.83,91.56,207.14,86.4,207.14,86.4Z"/></g><path class="cls-9" d="M273,202a146.73,146.73,0,0,0-24.28-81.53,30.79,30.79,0,0,0-44.81-42.06,119.91,119.91,0,0,0-74.31-14.84c-4.62-.3-30.72-2.15-35.15-6.58A20.86,20.86,0,0,0,105,66.73S90.57,65,87.44,61.87c0,0,4.23,7.46,9.16,10.75A127,127,0,0,0,61.07,95.93C33.42,121.49,15.89,159.53,15.89,202c0,17,1.22,34.16,4.41,50.24A45.28,45.28,0,0,0,16.63,270c0,29.3,29.27,54.63,71.76,66.68L65.14,413.54H223.71l-23.25-76.91c42.49-12.05,71.76-37.38,71.76-66.68a45.28,45.28,0,0,0-3.67-17.7C271.73,236.17,273,219,273,202Z"/><path class="cls-4" d="M199.49,184.43s9.3,9.7,30.1,12.46"/><path class="cls-4" d="M91.48,184.43s-9.3,9.7-30.1,12.46"/><g class="cls-10"><path class="cls-11" d="M126.2,35.31,123.32,35C81.65,30.11,48.91,31,48.13,37.47c-.65,5.41,21.58,13.14,53.41,19.31"/><path class="cls-11" d="M155.83,64.45c35.12,3.2,61.16,1.83,61.85-3.89S194.56,46.91,161,40.64"/><path class="cls-11" d="M88.91,46C35.71,60.76-1.4,75.89,2.83,81.77c4.09,5.68,45.44.9,97.68-10.67"/><path class="cls-11" d="M183.14,49.16c36.9-11.67,60.19-22.37,56.79-27.1-3.82-5.31-40.18-1.48-87.56,8.49"/></g><polygon class="cls-12" points="38.3 41.5 36.26 53.4 44.9 61.83 32.95 63.56 27.61 74.39 22.27 63.56 10.32 61.83 18.96 53.4 16.92 41.5 27.61 47.12 38.3 41.5"/><polygon class="cls-12" points="143.85 54.13 138.75 61.83 142.2 70.4 133.29 67.93 126.2 73.86 125.81 64.62 117.98 59.71 126.64 56.49 128.89 47.52 134.64 54.76 143.85 54.13"/><polygon class="cls-12" points="219.56 11.56 214.77 17.54 216.99 24.87 209.82 22.17 203.53 26.54 203.88 18.89 197.78 14.26 205.17 12.23 207.69 5 211.9 11.4 219.56 11.56"/></g></g></g></svg>