<svg xmlns="http://www.w3.org/2000/svg" viewBox="0 0 1080.26 108.91"><defs><style>.cls-1{fill:#54524f;}.cls-2{fill:#6d655a;}</style></defs><title>game_hole</title><g id="Layer_2" data-name="Layer 2"><g id="Game_play" data-name="Game play"><g id="first_background" data-name="first background"><ellipse class="cls-1" cx="152.99" cy="54.45" rx="152.99" ry="54.45"/><path class="cls-2" d="M285.7,27.35q-.92-.57-1.88-1.13Q280,24,275.58,21.87t-9.35-4q-2.47-1-5.07-1.89t-5.31-1.8q-5.43-1.76-11.33-3.33-4.42-1.18-9.08-2.24c-6.21-1.42-12.72-2.68-19.5-3.77A399.46,399.46,0,0,0,153,0,399.46,399.46,0,0,0,90,4.81C83.25,5.9,76.74,7.16,70.53,8.58q-4.66,1.06-9.08,2.24-5.89,1.57-11.33,3.33-2.72.88-5.31,1.8t-5.07,1.89q-4.94,1.93-9.35,4t-8.24,4.34q-1,.56-1.88,1.13C7.37,35.33,0,44.58,0,54.45a20.91,20.91,0,0,0,1.8,8.38C13.12,36.73,76.5,16.75,153,16.75s139.86,20,151.18,46.08a20.91,20.91,0,0,0,1.8-8.38C306,44.58,298.6,35.33,285.7,27.35Z"/><ellipse class="cls-1" cx="540.13" cy="54.45" rx="152.99" ry="54.45"/><path class="cls-2" d="M672.84,27.35q-.92-.57-1.88-1.13-3.83-2.25-8.24-4.34t-9.35-4q-2.47-1-5.07-1.89T643,14.15q-5.43-1.76-11.33-3.33-4.42-1.18-9.08-2.24c-6.21-1.42-12.72-2.68-19.5-3.77a414.43,414.43,0,0,0-125.92,0c-6.78,1.09-13.29,2.35-19.5,3.77q-4.66,1.06-9.08,2.24-5.89,1.57-11.33,3.33-2.72.88-5.31,1.8t-5.07,1.89q-4.94,1.93-9.35,4t-8.24,4.34q-1,.56-1.88,1.13c-12.89,8-20.27,17.24-20.27,27.1a20.91,20.91,0,0,0,1.8,8.38c11.32-26.1,74.7-46.08,151.18-46.08S680,36.73,691.31,62.83a20.91,20.91,0,0,0,1.8-8.38C693.11,44.58,685.74,35.33,672.84,27.35Z"/><ellipse class="cls-1" cx="927.27" cy="54.45" rx="152.99" ry="54.45"/><path class="cls-2" d="M1060,27.35q-.92-.57-1.88-1.13-3.83-2.25-8.24-4.34t-9.35-4q-2.47-1-5.07-1.89t-5.31-1.8q-5.43-1.76-11.33-3.33-4.42-1.18-9.08-2.24c-6.21-1.42-12.72-2.68-19.5-3.77a414.43,414.43,0,0,0-125.92,0C857.53,5.9,851,7.16,844.81,8.58q-4.66,1.06-9.08,2.24-5.89,1.57-11.33,3.33-2.72.88-5.31,1.8T814,17.84q-4.94,1.93-9.35,4t-8.24,4.34q-1,.56-1.88,1.13c-12.89,8-20.27,17.24-20.27,27.1a20.91,20.91,0,0,0,1.8,8.38c11.32-26.1,74.7-46.08,151.18-46.08s139.86,20,151.18,46.08a20.91,20.91,0,0,0,1.8-8.38C1080.26,44.58,1072.88,35.33,1060,27.35Z"/></g></g></g></svg>