<svg xmlns="http://www.w3.org/2000/svg" viewBox="0 0 273.06 372.53"><defs><style>.cls-1{fill:#9b8c76;}.cls-2{fill:#ddcab1;}.cls-3{fill:#f7f4f0;}.cls-4,.cls-7,.cls-9{fill:none;stroke-linecap:round;stroke-linejoin:round;}.cls-4{stroke:#7a7167;}.cls-4,.cls-9{stroke-width:16px;}.cls-5{fill:#5b5853;}.cls-6{fill:#efb1b1;opacity:0.6;}.cls-7{stroke:#5b5853;stroke-width:10px;}.cls-8{fill:#e8c4a6;}.cls-9{stroke:#54524f;}</style></defs><title>game_sad_mole_n</title><g id="Layer_2" data-name="Layer 2"><g id="Game_play" data-name="Game play"><g id="SAD_MOLE" data-name="SAD MOLE"><polygon class="cls-1" points="186.8 268.56 137.6 263.17 137.6 262.94 136.53 263.06 135.46 262.94 135.46 263.17 86.26 268.56 57.25 364.53 135.9 364.53 137.17 364.53 215.82 364.53 186.8 268.56"/><path id="head" class="cls-1" d="M219.88,46.92c-22.44-20.75-51.55-33.27-83.35-33.27S75.62,26.17,53.18,46.92C25.53,72.48,8,110.52,8,153c0,44.17,8.15,88.92,37.71,114.45,22,19,60.57,24.9,90.82,24.9s68.86-5.94,90.82-24.9c29.57-25.53,37.71-70.29,37.71-114.45C265.06,110.52,247.53,72.48,219.88,46.92Z"/><ellipse class="cls-1" cx="136.53" cy="220.95" rx="127.8" ry="74.17"/><ellipse id="snout" class="cls-2" cx="136.53" cy="248.04" rx="100.85" ry="44.31"/><g id="teeeth"><polygon class="cls-3" points="137.16 244.85 148.59 252.25 145.63 271.83 137.16 271.83 137.16 244.85"/><polygon class="cls-3" points="135.9 244.37 124.48 252.25 127.44 271.83 135.9 271.83 135.9 244.37"/></g><path class="cls-4" d="M137.6,241.71s2.07,13.73,22,13.73"/><path class="cls-4" d="M135.47,241.71s-2.07,13.73-22,13.73"/><path id="nose" class="cls-5" d="M136.53,213.43c-22.07,0-29.68,3.81-26.26,14.08s11.61,14.08,26.26,14.08,22.83-3.81,26.26-14.08S158.61,213.43,136.53,213.43Z"/><path class="cls-4" d="M188.13,157.89"/><path class="cls-4" d="M84.93,157.89"/><path id="hair" class="cls-1" d="M122.36,14.62S91.36,12.86,86.5,8a20.86,20.86,0,0,0,10.65,9.73S82.67,16,79.55,12.86c0,0,6.95,12.28,13.43,12.28"/><ellipse class="cls-6" cx="240.4" cy="216.69" rx="16.18" ry="8.95"/><ellipse class="cls-6" cx="32.67" cy="216.69" rx="16.18" ry="8.95"/><polyline class="cls-7" points="212.18 176.55 194 184.45 212.18 190.1"/><polyline class="cls-7" points="60.89 176.55 79.07 184.45 60.89 190.1"/><path class="cls-8" d="M238.82,73.64c-12,12-25.79,6.29-37.82-5.73s-17.76-25.79-5.73-37.82a30.8,30.8,0,1,1,43.55,43.55Z"/><g id="hair-2" data-name="hair"><path class="cls-1" d="M218.87,81.54c3.59-3,4.37-9.1,4.37-9.1-.6,1.4-2.59,2.77-5.06,4a44.39,44.39,0,0,0,6.44-8.5C221.49,71.06,207,72.8,207,72.8a20.86,20.86,0,0,0,10.65-9.73c-1.94,1.94-8,3.38-14.66,4.42,1.16-2.19,1.92-4.13,1.92-4.13-1.78,2.61-9.67,3.85-9.67,3.85,4.09-2.24,6-8.1,6-8.1-.86,1.26-3.08,2.22-5.73,3A44.39,44.39,0,0,0,203.52,55c-3.67,2.47-18.21,1.4-18.21,1.4a20.86,20.86,0,0,0,12.32-7.51c-1.31.89-4,1.34-7.26,1.52,2.47-.73,6.06-5.13,6.06-5.13-1.72,1.35-7.2.52-7.2.52,3.17-.62,5.68-4.09,5.68-4.09-2.68,2.1-14-.78-14-.78l8.38,9.52h.07c-11.07.4-28.18-1.94-28.18-1.94l25.55,15.19c-2.89.35-5,.47-5,.47l8.17,4.92c-4.68.43-8,.62-8,.62l28,10c-2.77.89-4.86,1.43-4.86,1.43l17.18,6.26c3.47-.57,5.5-11.49,5.5-11.49C226.38,78.81,218.87,81.54,218.87,81.54Z"/><path class="cls-1" d="M199.25,37.39c-2.94.86-12.33-2.89-12.33-2.89a14.47,14.47,0,0,0,9.72-2.38c-4.58,1.34-24-7.89-24-7.89L187,40.4C190.94,42.56,199.25,37.39,199.25,37.39Z"/></g><path class="cls-9" d="M265.06,153a146.73,146.73,0,0,0-24.28-81.53A30.79,30.79,0,0,0,196,29.42a119.91,119.91,0,0,0-74.31-14.84C117,14.28,90.93,12.43,86.5,8a20.86,20.86,0,0,0,10.65,9.73S82.67,16,79.55,12.86c0,0,4.23,7.46,9.16,10.75A127,127,0,0,0,53.18,46.92C25.53,72.48,8,110.52,8,153c0,17,1.22,34.16,4.41,50.24a45.28,45.28,0,0,0-3.67,17.7c0,29.3,29.27,54.63,71.76,66.68L57.25,364.53H215.82l-23.25-76.91c42.49-12.05,71.76-37.38,71.76-66.68a45.28,45.28,0,0,0-3.67-17.7C263.84,187.17,265.06,170,265.06,153Z"/><path class="cls-4" d="M191.6,135.42s9.3,9.7,30.1,12.46"/><path class="cls-4" d="M83.59,135.42s-9.3,9.7-30.1,12.46"/></g></g></g></svg>