<svg xmlns="http://www.w3.org/2000/svg" viewBox="0 0 273.06 373.71"><defs><style>.cls-1{fill:#9b8c76;}.cls-2{fill:#ddcab1;}.cls-3{fill:#5b5853;}.cls-4{fill:#f7f4f0;}.cls-5,.cls-7{fill:none;stroke-linecap:round;stroke-linejoin:round;stroke-width:16px;}.cls-5{stroke:#7a7167;}.cls-6{fill:#efb1b1;opacity:0.6;}.cls-7{stroke:#54524f;}</style></defs><title>game_mole</title><g id="Layer_2" data-name="Layer 2"><g id="Game_play" data-name="Game play"><g id="MOLE"><polygon class="cls-1" points="186.8 268.31 137.6 262.92 137.6 262.69 136.53 262.81 135.46 262.69 135.46 262.92 86.26 268.31 57.24 364.28 135.9 364.28 137.17 364.28 215.82 364.28 186.8 268.31"/><path id="head" class="cls-1" d="M219.88,46.67C197.44,25.92,168.34,13.4,136.53,13.4S75.62,25.92,53.18,46.67C25.53,72.23,8,110.27,8,152.75c0,44.17,8.15,88.92,37.71,114.45,22,19,60.57,24.9,90.82,24.9s68.86-5.94,90.82-24.9c29.57-25.53,37.71-70.29,37.71-114.45C265.06,110.27,247.53,72.23,219.88,46.67Z"/><ellipse class="cls-1" cx="136.53" cy="220.7" rx="127.8" ry="74.17"/><ellipse id="snout" class="cls-2" cx="136.53" cy="247.79" rx="100.85" ry="44.31"/><circle id="eyes" class="cls-3" cx="67.48" cy="187.97" r="9.7"/><circle id="eyeys" class="cls-3" cx="205.59" cy="187.97" r="9.7"/><g id="teeeth"><polygon class="cls-4" points="137.16 244.6 148.59 252 145.63 271.58 137.16 271.58 137.16 244.6"/><polygon class="cls-4" points="135.9 244.12 124.48 252 127.44 271.58 135.9 271.58 135.9 244.12"/></g><path class="cls-5" d="M137.6,241.46s2.07,13.73,22,13.73"/><path class="cls-5" d="M135.47,241.46s-2.07,13.73-22,13.73"/><path id="nose" class="cls-3" d="M136.53,213.18c-22.07,0-29.68,3.81-26.26,14.08s11.61,14.08,26.26,14.08,22.83-3.81,26.26-14.08S158.6,213.18,136.53,213.18Z"/><path class="cls-5" d="M190.54,146.52s9.3,9.7,30.1,12.46"/><path class="cls-5" d="M82.53,146.52s-9.3,9.7-30.1,12.46"/><path id="hair" class="cls-1" d="M122.6,14.37s-31-1.76-35.86-6.62a20.86,20.86,0,0,0,10.65,9.73s-14.48-1.74-17.6-4.86c0,0,6.95,12.28,13.43,12.28"/><ellipse class="cls-6" cx="240.4" cy="216.44" rx="16.18" ry="8.95"/><ellipse class="cls-6" cx="32.67" cy="216.44" rx="16.18" ry="8.95"/><path class="cls-7" d="M265.06,153c0-42.48-17.53-80.52-45.18-106.08-22.44-20.75-51.55-33.27-83.35-33.27a119.92,119.92,0,0,0-14.91.93c-4.54-.29-30.75-2.14-35.19-6.58a20.86,20.86,0,0,0,10.65,9.73S82.61,16,79.49,12.86c0,0,4.24,7.49,9.19,10.77A127,127,0,0,0,53.18,46.92C25.53,72.48,8,110.52,8,153c0,17,1.21,34.16,4.4,50.24a45.28,45.28,0,0,0-3.67,17.71c0,27.51,25.81,51.53,64.14,64.33L52.33,365.71l170.74-1.43-22.88-79c38.33-12.81,64.14-36.82,64.14-64.33a45.28,45.28,0,0,0-3.67-17.71C263.85,187.16,265.06,170,265.06,153Z"/></g></g></g></svg>