<svg xmlns="http://www.w3.org/2000/svg" viewBox="0 0 184.96 184.96"><defs><style>.cls-1{fill:#3a8ea5;}.cls-2{fill:#b7e5f7;}.cls-3{fill:#dceef4;}.cls-4{fill:#595959;}.cls-4,.cls-5,.cls-6{stroke:#595959;stroke-linecap:round;stroke-linejoin:round;stroke-width:5px;}.cls-5,.cls-6{fill:none;}.cls-6{stroke-dasharray:6 12;}</style></defs><title>game_mirror</title><g id="Layer_2" data-name="Layer 2"><g id="Game_play" data-name="Game play"><g id="ACTIVE_MIRROR" data-name="ACTIVE MIRROR"><rect class="cls-1" width="184.96" height="184.96" rx="64.69" ry="64.69"/><rect class="cls-2" x="14.29" y="14.29" width="156.37" height="156.37" rx="54.69" ry="54.69"/><path class="cls-3" d="M15.2,59.1A55,55,0,0,0,14.29,69v47a54.7,54.7,0,0,0,44,53.64Z"/><path class="cls-3" d="M68.83,14.3a54.66,54.66,0,0,0-16.05,2.44l60,153.93H116A54.78,54.78,0,0,0,129.18,169Z"/><path class="cls-3" d="M116,14.29H98.73l55.06,141.17A54.51,54.51,0,0,0,170.66,116V69A54.69,54.69,0,0,0,116,14.29Z"/><polygon class="cls-4" points="101.51 92.48 145.44 67.11 145.44 117.84 101.51 92.48"/><polygon class="cls-5" points="83.45 92.48 39.52 67.11 39.52 117.84 83.45 92.48"/><line class="cls-6" x1="92.48" y1="52.5" x2="92.48" y2="132.46"/></g></g></g></svg>