<svg xmlns="http://www.w3.org/2000/svg" viewBox="0 0 1080.26 429.88"><defs><style>.cls-1{fill:#9bb53e;}.cls-2{fill:#54524f;}.cls-3{fill:#8ba033;}</style></defs><title>game_foreground</title><g id="Layer_2" data-name="Layer 2"><g id="Game_play" data-name="Game play"><g id="third_foreground" data-name="third foreground"><polygon class="cls-1" points="305.97 429.88 0 429.88 0 0 155.78 46.08 305.97 0 305.97 429.88"/><path class="cls-2" d="M1.8,0C13.12,26.1,76.5,46.08,153,46.08S292.85,26.1,304.17,0c0,0-91.48,25.82-148.39,25.82S1.8,0,1.8,0Z"/><polygon class="cls-1" points="693.11 429.88 387.14 429.88 387.14 0 542.92 46.08 693.11 0 693.11 429.88"/><path class="cls-2" d="M388.94,0c11.32,26.1,74.7,46.08,151.18,46.08S680,26.1,691.31,0c0,0-91.48,25.82-148.39,25.82S388.94,0,388.94,0Z"/><polygon class="cls-1" points="1080.26 429.88 774.28 429.88 774.28 0 930.07 46.08 1080.26 0 1080.26 429.88"/><path class="cls-2" d="M776.09,0c11.32,26.1,74.7,46.08,151.18,46.08S1067.13,26.1,1078.45,0c0,0-91.48,25.82-148.39,25.82S776.09,0,776.09,0Z"/><path class="cls-3" d="M785.46,191.69a.66.66,0,0,0,.66-.65c.32-13.78,3.63-26,5.51-35.21,1.7-8.41,2.44-17.49,5.6-25.38a.92.92,0,0,0-1.5-1,77.56,77.56,0,0,0-12.17,17.28c-5.25,9.92-11,25.64-8.31,44.16a.92.92,0,0,0,.91.79h9.31Z"/><path class="cls-3" d="M750.21,159.52a.92.92,0,0,0-.87,1.21c4.88,14.64.05,29.59,0,29.74a.92.92,0,0,0,.87,1.21h10.11a.92.92,0,0,0,.92-.92c0-20.36-9.95-30.55-10.38-31A.92.92,0,0,0,750.21,159.52Z"/><path class="cls-3" d="M766,191.69h4.36a.57.57,0,0,0,.57-.65,73.81,73.81,0,0,1,1.77-28.23.58.58,0,0,0,0-.3C768.28,147.07,761.39,140,761,139.57a.92.92,0,0,0-1.55.83,128.89,128.89,0,0,1,2.14,28.83.55.55,0,0,0,0,.22,62.32,62.32,0,0,1,3.84,21.67A.57.57,0,0,0,766,191.69Z"/><path class="cls-3" d="M814.79,154.23c-4.47-7-8.3-9.61-8.46-9.72a.92.92,0,0,0-1.38,1.06c4.93,14.79,0,44.75,0,45.05a.92.92,0,0,0,.91,1.07H826a.92.92,0,0,0,.91-1C824.31,172.18,818.88,160.65,814.79,154.23Z"/><path class="cls-3" d="M808.16,140.63a26,26,0,0,1,3.48-10,.92.92,0,0,0-1.44-1.14,59.79,59.79,0,0,0-8,12.06,5.15,5.15,0,0,1,6-.91Z"/><path class="cls-3" d="M831.07,191.07a.72.72,0,0,0,.71.62h4.36a.92.92,0,0,0,.82-.51,1,1,0,0,0,0-.86c-9.83-19.72-5-49.65-5-49.95a.92.92,0,0,0-1.42-.92,42,42,0,0,0-11.91,12.91C824.72,162,828.88,176.1,831.07,191.07Z"/><path class="cls-3" d="M800.08,191.69a.7.7,0,0,0,.69-.59c.64-4.36,4.34-31.48.11-44.17v0a.7.7,0,0,0-1.3-.08,113.87,113.87,0,0,0-9.16,43.93.92.92,0,0,0,.92.93h8.76Z"/><path class="cls-3" d="M344,241.05a.55.55,0,0,0,.55-.54c.27-11.51,3-21.7,4.6-29.42,1.42-7,2-14.62,4.68-21.21a.77.77,0,0,0-1.26-.83,64.81,64.81,0,0,0-10.17,14.44c-4.39,8.29-9.16,21.42-6.95,36.9a.77.77,0,0,0,.76.66H344Z"/><path class="cls-3" d="M314.57,214.17a.77.77,0,0,0-.73,1c4.08,12.23,0,24.73,0,24.85a.77.77,0,0,0,.73,1H323a.77.77,0,0,0,.77-.77c0-17-8.31-25.53-8.67-25.89A.77.77,0,0,0,314.57,214.17Z"/><path class="cls-3" d="M327.77,241.05h3.65a.48.48,0,0,0,.47-.55,61.68,61.68,0,0,1,1.48-23.59.48.48,0,0,0,0-.25c-3.7-12.89-9.45-18.81-9.81-19.16a.77.77,0,0,0-1.3.69A107.7,107.7,0,0,1,324,222.28a.46.46,0,0,0,0,.19,52.08,52.08,0,0,1,3.21,18.11A.48.48,0,0,0,327.77,241.05Z"/><path class="cls-3" d="M368.53,209.75c-3.73-5.86-6.94-8-7.07-8.12a.77.77,0,0,0-1.16.88c4.12,12.36,0,37.4,0,37.65a.77.77,0,0,0,.76.89h16.9a.77.77,0,0,0,.76-.88C376.49,224.75,371.95,215.12,368.53,209.75Z"/><path class="cls-3" d="M363,198.39a21.74,21.74,0,0,1,2.9-8.36.77.77,0,0,0-1.2-1A50,50,0,0,0,358,199.15a4.31,4.31,0,0,1,5-.76Z"/><path class="cls-3" d="M382.14,240.54a.6.6,0,0,0,.59.51h3.65a.76.76,0,0,0,.69-.43.81.81,0,0,0,0-.72c-8.22-16.48-4.18-41.49-4.14-41.74a.77.77,0,0,0-1.18-.77,35.06,35.06,0,0,0-9.95,10.79C376.83,216.27,380.3,228,382.14,240.54Z"/><path class="cls-3" d="M356.24,241.05a.58.58,0,0,0,.58-.5c.53-3.64,3.63-26.3.09-36.91v0a.58.58,0,0,0-1.09-.06,95.15,95.15,0,0,0-7.66,36.71.77.77,0,0,0,.77.78h7.32Z"/><path class="cls-3" d="M59.57,135.25a.39.39,0,0,0,.39-.39c.19-8.22,2.17-15.5,3.29-21,1-5,1.46-10.44,3.34-15.15a.55.55,0,0,0-.9-.59,46.3,46.3,0,0,0-7.26,10.31,43.44,43.44,0,0,0-5,26.36.55.55,0,0,0,.54.47h5.56Z"/><path class="cls-3" d="M38.53,116a.55.55,0,0,0-.52.72c2.91,8.74,0,17.67,0,17.75a.55.55,0,0,0,.52.73h6a.55.55,0,0,0,.55-.55c0-12.15-5.94-18.23-6.2-18.49A.55.55,0,0,0,38.53,116Z"/><path class="cls-3" d="M48,135.25h2.6a.34.34,0,0,0,.34-.39A44.06,44.06,0,0,1,52,118a.34.34,0,0,0,0-.18c-2.64-9.21-6.75-13.44-7-13.69a.55.55,0,0,0-.93.5,76.94,76.94,0,0,1,1.28,17.21.33.33,0,0,0,0,.13,37.2,37.2,0,0,1,2.29,12.93A.34.34,0,0,0,48,135.25Z"/><path class="cls-3" d="M77.08,112.89a20.31,20.31,0,0,0-5.05-5.8.55.55,0,0,0-.83.63c2.94,8.83,0,26.71,0,26.89a.55.55,0,0,0,.54.64H83.79a.55.55,0,0,0,.54-.63C82.76,123.6,79.52,116.72,77.08,112.89Z"/><path class="cls-3" d="M73.12,104.77a15.53,15.53,0,0,1,2.07-6,.55.55,0,0,0-.86-.68,35.69,35.69,0,0,0-4.78,7.2,3.08,3.08,0,0,1,3.56-.55Z"/><path class="cls-3" d="M86.8,134.88a.43.43,0,0,0,.42.37h2.6a.55.55,0,0,0,.49-.31.58.58,0,0,0,0-.51c-5.87-11.77-3-29.64-3-29.82a.55.55,0,0,0-.85-.55,25,25,0,0,0-7.11,7.71C83,117.54,85.49,125.94,86.8,134.88Z"/><path class="cls-3" d="M68.3,135.25a.42.42,0,0,0,.41-.35c.38-2.6,2.59-18.79.06-26.37h0a.42.42,0,0,0-.78,0,68,68,0,0,0-5.47,26.22.55.55,0,0,0,.55.56H68.3Z"/></g></g></g></svg>