<svg xmlns="http://www.w3.org/2000/svg" viewBox="0 0 184.96 184.96"><defs><style>.cls-1,.cls-6{fill:#777;}.cls-1,.cls-4{opacity:0.7;}.cls-2{opacity:0.3;}.cls-3,.cls-5,.cls-7{fill:none;}.cls-3,.cls-5,.cls-6,.cls-7{stroke:#fff;stroke-linecap:round;stroke-linejoin:round;}.cls-3{stroke-width:3px;}.cls-5{stroke-width:7px;}.cls-6,.cls-7{stroke-width:10px;}</style></defs><title>game_deadFreeze</title><g id="Layer_2" data-name="Layer 2"><g id="Game_play" data-name="Game play"><g id="DEAD_SNOW" data-name="DEAD SNOW"><rect class="cls-1" width="184.96" height="184.96" rx="64.69" ry="64.69"/><g id="snowflake" class="cls-2"><polygon class="cls-3" points="135.19 36.77 146.13 28.76 144.67 42.24 157.08 47.71 144.67 53.18 146.13 66.66 135.19 58.65 124.25 66.66 125.72 53.18 113.31 47.71 125.72 42.24 124.25 28.76 135.19 36.77"/><line class="cls-3" x1="135.19" y1="14.18" x2="135.19" y2="33.5"/><polyline class="cls-3" points="127.51 18.1 135.19 25.79 142.88 18.1"/><line class="cls-3" x1="106.49" y1="31.07" x2="123.23" y2="40.74"/><polyline class="cls-3" points="106.05 39.69 116.55 36.88 113.74 26.38"/><line class="cls-3" x1="164.08" y1="30.88" x2="147.34" y2="40.54"/><polyline class="cls-3" points="156.83 26.18 154.02 36.68 164.52 39.5"/><line class="cls-3" x1="135.19" y1="80.65" x2="135.19" y2="61.32"/><polyline class="cls-3" points="142.88 76.72 135.19 69.03 127.51 76.72"/><line class="cls-3" x1="106.28" y1="64.31" x2="123.02" y2="54.65"/><polyline class="cls-3" points="113.52 69 116.33 58.51 105.84 55.69"/><line class="cls-3" x1="163.86" y1="64.31" x2="147.12" y2="54.65"/><polyline class="cls-3" points="164.3 55.69 153.8 58.51 156.61 69"/></g><g id="snowflake-2" data-name="snowflake" class="cls-2"><polygon class="cls-3" points="71.21 127.39 82.15 119.38 80.69 132.86 93.09 138.33 80.69 143.8 82.15 157.28 71.21 149.28 60.27 157.28 61.73 143.8 49.33 138.33 61.73 132.86 60.27 119.38 71.21 127.39"/><line class="cls-3" x1="71.21" y1="104.8" x2="71.21" y2="124.13"/><polyline class="cls-3" points="63.52 108.73 71.21 116.42 78.9 108.73"/><line class="cls-3" x1="42.51" y1="121.7" x2="59.25" y2="131.36"/><polyline class="cls-3" points="42.07 130.32 52.57 127.5 49.75 117"/><line class="cls-3" x1="100.09" y1="121.5" x2="83.36" y2="131.17"/><polyline class="cls-3" points="92.85 116.81 90.04 127.31 100.54 130.12"/><line class="cls-3" x1="71.21" y1="171.27" x2="71.21" y2="151.94"/><polyline class="cls-3" points="78.9 167.35 71.21 159.66 63.52 167.35"/><line class="cls-3" x1="42.29" y1="154.94" x2="59.03" y2="145.27"/><polyline class="cls-3" points="49.54 159.63 52.35 149.13 41.85 146.32"/><line class="cls-3" x1="99.87" y1="154.94" x2="83.13" y2="145.27"/><polyline class="cls-3" points="100.31 146.32 89.81 149.13 92.63 159.63"/></g><g id="snowflake-3" data-name="snowflake" class="cls-2"><polygon class="cls-3" points="38.16 48.57 46.35 42.57 45.25 52.67 54.54 56.76 45.25 60.86 46.35 70.95 38.16 64.95 29.96 70.95 31.06 60.86 21.77 56.76 31.06 52.67 29.96 42.57 38.16 48.57"/><line class="cls-3" x1="38.16" y1="31.65" x2="38.16" y2="46.13"/><polyline class="cls-3" points="32.4 34.59 38.16 40.35 43.91 34.59"/><line class="cls-3" x1="16.67" y1="44.3" x2="29.2" y2="51.54"/><polyline class="cls-3" points="16.34 50.76 24.2 48.65 22.09 40.79"/><line class="cls-3" x1="59.78" y1="44.16" x2="47.25" y2="51.39"/><polyline class="cls-3" points="54.36 40.65 52.26 48.51 60.12 50.61"/><line class="cls-3" x1="38.16" y1="81.42" x2="38.16" y2="66.95"/><polyline class="cls-3" points="43.91 78.48 38.16 72.73 32.4 78.48"/><line class="cls-3" x1="16.51" y1="69.19" x2="29.04" y2="61.96"/><polyline class="cls-3" points="21.93 72.71 24.04 64.85 16.18 62.74"/><line class="cls-3" x1="59.62" y1="69.19" x2="47.09" y2="61.96"/><polyline class="cls-3" points="59.95 62.74 52.09 64.85 54.2 72.71"/></g><g id="snowflake-4" data-name="snowflake" class="cls-2"><polygon class="cls-3" points="147.13 116.16 155.32 110.16 154.22 120.26 163.51 124.35 154.22 128.45 155.32 138.54 147.13 132.54 138.94 138.54 140.03 128.45 130.75 124.35 140.03 120.26 138.94 110.16 147.13 116.16"/><line class="cls-3" x1="147.13" y1="99.25" x2="147.13" y2="113.72"/><polyline class="cls-3" points="141.37 102.19 147.13 107.94 152.88 102.19"/><line class="cls-3" x1="125.64" y1="111.9" x2="138.17" y2="119.13"/><polyline class="cls-3" points="125.31 118.35 133.17 116.24 131.06 108.38"/><line class="cls-3" x1="168.76" y1="111.75" x2="156.22" y2="118.99"/><polyline class="cls-3" points="163.33 108.23 161.23 116.1 169.09 118.2"/><line class="cls-3" x1="147.13" y1="149.02" x2="147.13" y2="134.54"/><polyline class="cls-3" points="152.88 146.08 147.13 140.32 141.37 146.08"/><line class="cls-3" x1="125.48" y1="136.79" x2="138.01" y2="129.55"/><polyline class="cls-3" points="130.9 140.3 133.01 132.44 125.15 130.33"/><line class="cls-3" x1="168.59" y1="136.79" x2="156.06" y2="129.55"/><polyline class="cls-3" points="168.92 130.33 161.06 132.44 163.17 140.3"/></g><g id="snowflake-5" data-name="snowflake" class="cls-4"><polygon class="cls-5" points="92.51 68.51 117.15 50.47 113.85 80.83 141.79 93.15 113.85 105.46 117.15 135.82 92.51 117.78 67.88 135.82 71.18 105.46 43.24 93.15 71.18 80.83 67.88 50.47 92.51 68.51"/><line class="cls-5" x1="92.51" y1="17.64" x2="92.51" y2="61.16"/><polyline class="cls-5" points="75.21 26.48 92.51 43.79 109.82 26.48"/><line class="cls-5" x1="27.89" y1="55.68" x2="65.58" y2="77.45"/><polyline class="cls-5" points="26.89 75.09 50.54 68.76 44.2 45.12"/><line class="cls-5" x1="157.55" y1="55.24" x2="119.86" y2="77.01"/><polyline class="cls-5" points="141.24 44.68 134.91 68.32 158.55 74.65"/><line class="cls-5" x1="92.51" y1="167.32" x2="92.51" y2="123.79"/><polyline class="cls-5" points="109.82 158.47 92.51 141.17 75.21 158.47"/><line class="cls-5" x1="27.4" y1="130.53" x2="65.09" y2="108.77"/><polyline class="cls-5" points="43.71 141.1 50.05 117.46 26.41 111.13"/><line class="cls-5" x1="157.06" y1="130.53" x2="119.36" y2="108.77"/><polyline class="cls-5" points="158.05 111.13 134.41 117.46 140.75 141.1"/></g><circle class="cls-6" cx="92.48" cy="92.48" r="48.26"/><polyline class="cls-7" points="92.48 54.58 92.48 92.48 71.68 92.48"/></g></g></g></svg>