<svg xmlns="http://www.w3.org/2000/svg" viewBox="0 0 184.96 184.96"><defs><style>.cls-1,.cls-4{fill:#73d0f4;}.cls-2{opacity:0.7;}.cls-3{fill:none;stroke-width:7px;}.cls-3,.cls-4{stroke:#fff;stroke-linecap:round;stroke-linejoin:round;}.cls-4{stroke-width:10px;}</style></defs><title>game_freeze</title><g id="Layer_2" data-name="Layer 2"><g id="Game_play" data-name="Game play"><g id="ACTIVE_SNOWFLAKE" data-name="ACTIVE SNOWFLAKE"><rect class="cls-1" width="184.96" height="184.96" rx="64.69" ry="64.69"/><g id="snowflake" class="cls-2"><polygon class="cls-3" points="92.51 68.51 117.15 50.47 113.85 80.83 141.79 93.15 113.85 105.46 117.15 135.82 92.51 117.78 67.88 135.82 71.18 105.46 43.24 93.15 71.18 80.83 67.88 50.47 92.51 68.51"/><line class="cls-3" x1="92.51" y1="17.64" x2="92.51" y2="61.16"/><polyline class="cls-3" points="75.21 26.48 92.51 43.79 109.82 26.48"/><line class="cls-3" x1="27.89" y1="55.68" x2="65.58" y2="77.45"/><polyline class="cls-3" points="26.89 75.09 50.54 68.76 44.2 45.12"/><line class="cls-3" x1="157.55" y1="55.24" x2="119.86" y2="77.01"/><polyline class="cls-3" points="141.24 44.68 134.91 68.32 158.55 74.65"/><line class="cls-3" x1="92.51" y1="167.32" x2="92.51" y2="123.79"/><polyline class="cls-3" points="109.82 158.47 92.51 141.17 75.21 158.47"/><line class="cls-3" x1="27.4" y1="130.53" x2="65.09" y2="108.77"/><polyline class="cls-3" points="43.71 141.1 50.05 117.46 26.41 111.13"/><line class="cls-3" x1="157.06" y1="130.53" x2="119.36" y2="108.77"/><polyline class="cls-3" points="158.05 111.13 134.41 117.46 140.75 141.1"/></g><circle class="cls-4" cx="92.48" cy="92.48" r="48.26"/><polyline class="cls-4" points="92.48 54.58 92.48 92.48 71.68 92.48"/></g></g></g></svg>