<svg xmlns="http://www.w3.org/2000/svg" viewBox="0 0 517.47 581.57"><defs><style>.cls-1{fill:#db9231;}.cls-2{fill:#54524f;}.cls-3{fill:#6d655a;}.cls-4{fill:#9b8c76;}.cls-5{fill:#ddcab1;}.cls-6{fill:#f7f4f0;}.cls-11,.cls-13,.cls-14,.cls-16,.cls-7,.cls-9{fill:none;}.cls-14,.cls-7,.cls-9{stroke:#7a7167;}.cls-11,.cls-13,.cls-14,.cls-16,.cls-17,.cls-7,.cls-9{stroke-linecap:round;stroke-linejoin:round;}.cls-7{stroke-width:9px;}.cls-8{fill:#5b5853;}.cls-9{stroke-width:16px;}.cls-10{fill:#efb1b1;opacity:0.6;}.cls-11{stroke:#5b5853;stroke-width:8px;}.cls-12{fill:#e8c4a6;}.cls-13{stroke:#54524f;}.cls-13,.cls-14{stroke-width:11px;}.cls-15{opacity:0.5;}.cls-16{stroke:#fff;stroke-width:3px;}.cls-17{fill:#eada47;stroke:#eada47;stroke-width:6px;}.cls-18{fill:#826257;}.cls-19{fill:#9b7b6d;}.cls-20{fill:#825f55;}.cls-21{fill:#4d5c91;}.cls-22{fill:#966f60;}</style></defs><title>home_play</title><g id="Layer_2" data-name="Layer 2"><g id="HomePage"><rect class="cls-1" width="517.47" height="581.57" rx="30" ry="30"/><g id="h_and_m" data-name="h and m"><g id="hole"><ellipse class="cls-2" cx="258.19" cy="383.12" rx="104.47" ry="37.18"/><path class="cls-3" d="M348.82,364.61l-1.28-.77q-2.62-1.53-5.63-3t-6.38-2.75q-1.69-.66-3.46-1.29t-3.63-1.23q-3.71-1.2-7.74-2.27-3-.8-6.2-1.53c-4.24-1-8.69-1.83-13.32-2.57a283,283,0,0,0-86,0c-4.63.74-9.08,1.61-13.32,2.57q-3.18.73-6.2,1.53-4,1.07-7.74,2.27-1.86.6-3.63,1.23t-3.46,1.29q-3.37,1.32-6.38,2.75t-5.63,3l-1.28.77c-8.81,5.45-13.84,11.77-13.84,18.51a14.28,14.28,0,0,0,1.23,5.72c7.73-17.82,51-31.46,103.24-31.46S353.7,371,361.43,388.84a14.28,14.28,0,0,0,1.23-5.72C362.66,376.38,357.62,370.06,348.82,364.61Z"/></g><g id="mole"><polygon class="cls-4" points="295.11 330.67 259.51 326.78 259.51 326.61 258.74 326.69 257.96 326.61 257.96 326.78 222.36 330.67 201.37 400.12 258.28 400.12 259.19 400.12 316.1 400.12 295.11 330.67"/><path id="head" class="cls-4" d="M319,170.3c-16.24-15-37.3-24.07-60.31-24.07s-44.07,9.06-60.31,24.07c-20,18.49-32.69,46-32.69,76.76,0,32,5.89,64.34,27.29,82.82,15.89,13.72,43.83,18,65.71,18s49.83-4.3,65.71-18c21.39-18.47,27.29-50.86,27.29-82.82C351.74,216.32,339.05,188.8,319,170.3Z"/><ellipse class="cls-4" cx="258.73" cy="296.22" rx="92.47" ry="53.67"/><ellipse id="snout" class="cls-5" cx="258.73" cy="315.83" rx="72.97" ry="32.06"/><g id="teeeth"><polygon class="cls-6" points="259.19 313.51 267.46 318.87 265.31 333.04 259.19 333.04 259.19 313.51"/><polygon class="cls-6" points="258.28 313.17 250.01 318.87 252.15 333.04 258.28 333.04 258.28 313.17"/></g><path class="cls-7" d="M259.5,311.25s1.5,9.94,15.9,9.94"/><path class="cls-7" d="M258,311.25s-1.5,9.94-15.9,9.94"/><path id="nose" class="cls-8" d="M258.73,290.79c-16,0-21.48,2.75-19,10.19s8.4,10.19,19,10.19,16.52-2.75,19-10.19S274.71,290.79,258.73,290.79Z"/><path class="cls-9" d="M296.07,250.59"/><path class="cls-9" d="M221.4,250.59"/><path id="hair" class="cls-4" d="M248.48,146.93s-22.43-1.27-25.95-4.79a15.09,15.09,0,0,0,7.71,7s-10.47-1.26-12.74-3.52c0,0,5,8.88,9.72,8.88"/><ellipse class="cls-10" cx="333.89" cy="293.14" rx="11.7" ry="6.48"/><ellipse class="cls-10" cx="183.58" cy="293.14" rx="11.7" ry="6.48"/><polyline class="cls-11" points="313.47 264.1 300.31 269.81 313.47 273.91"/><polyline class="cls-11" points="204 264.1 217.16 269.81 204 273.91"/><path class="cls-12" d="M332.74,189.64c-8.7,8.7-18.66,4.55-27.37-4.15s-12.85-18.66-4.15-27.37a22.28,22.28,0,0,1,31.51,31.51Z"/><g id="hair-2" data-name="hair"><path class="cls-4" d="M318.31,195.35c2.59-2.16,3.16-6.59,3.16-6.59-.43,1-1.88,2-3.66,2.89a32.12,32.12,0,0,0,4.66-6.15c-2.26,2.26-12.74,3.52-12.74,3.52a15.09,15.09,0,0,0,7.71-7c-1.4,1.4-5.81,2.45-10.6,3.2.84-1.58,1.39-3,1.39-3-1.29,1.89-7,2.78-7,2.78,3-1.62,4.36-5.86,4.36-5.86-.62.91-2.23,1.61-4.14,2.14a32.12,32.12,0,0,0,5.75-5.14c-2.65,1.79-13.17,1-13.17,1a15.09,15.09,0,0,0,8.91-5.43c-1,.64-2.87,1-5.25,1.1,1.79-.53,4.39-3.71,4.39-3.71-1.25,1-5.21.37-5.21.37,2.3-.45,4.11-3,4.11-3-1.94,1.52-10.15-.56-10.15-.56l6.06,6.89h.05c-8,.29-20.39-1.4-20.39-1.4l18.49,11c-2.09.25-3.65.34-3.65.34l5.91,3.56c-3.38.31-5.82.45-5.82.45L311.75,194c-2,.65-3.51,1-3.51,1l12.43,4.53c2.51-.41,4-8.31,4-8.31C323.75,193.38,318.31,195.35,318.31,195.35Z"/><path class="cls-4" d="M304.12,163.41c-2.13.63-8.92-2.09-8.92-2.09a10.47,10.47,0,0,0,7-1.72c-3.31,1-17.39-5.71-17.39-5.71l10.41,11.7C298.1,167.14,304.12,163.41,304.12,163.41Z"/></g><path class="cls-13" d="M351.74,247.06a106.17,106.17,0,0,0-17.57-59,22.28,22.28,0,0,0-32.43-30.43A86.76,86.76,0,0,0,248,146.9c-3.35-.21-22.23-1.55-25.44-4.76a15.09,15.09,0,0,0,7.71,7s-10.47-1.26-12.74-3.52c0,0,3.06,5.4,6.63,7.78a91.92,91.92,0,0,0-25.71,16.86c-20,18.49-32.69,46-32.69,76.76a188.65,188.65,0,0,0,3.19,36.35,32.76,32.76,0,0,0-2.66,12.81c0,21.2,21.18,39.53,51.92,48.25l-16.82,55.65H316.1l-16.82-55.65c30.74-8.72,51.92-27,51.92-48.25a32.76,32.76,0,0,0-2.66-12.81A188.66,188.66,0,0,0,351.74,247.06Z"/><path class="cls-14" d="M298.58,234.34s6.73,7,21.78,9"/><path class="cls-14" d="M220.43,234.34s-6.73,7-21.78,9"/><g id="stars"><g class="cls-15"><path class="cls-16" d="M245.55,126.44l-2.08-.25c-30.15-3.51-53.84-2.84-54.4,1.81-.47,3.92,15.62,9.51,38.65,14"/><path class="cls-16" d="M267,147.53c25.41,2.31,44.25,1.33,44.75-2.81s-16.72-9.88-41-14.42"/><path class="cls-16" d="M218.57,134.19c-38.5,10.66-65.35,21.62-62.29,25.87s32.88.65,70.68-7.72"/><path class="cls-16" d="M286.75,136.47c26.7-8.44,43.55-16.19,41.09-19.61-2.76-3.84-29.08-1.07-63.36,6.14"/></g><polygon class="cls-17" points="181.94 130.92 180.47 139.53 186.73 145.63 178.08 146.88 174.21 154.72 170.35 146.89 161.7 145.63 167.96 139.53 166.48 130.92 174.21 134.99 181.94 130.92"/><polygon class="cls-17" points="258.32 140.06 254.63 145.63 257.12 151.84 250.68 150.04 245.55 154.33 245.27 147.65 239.6 144.1 245.87 141.76 247.5 135.28 251.65 140.52 258.32 140.06"/><polygon class="cls-17" points="313.1 109.26 309.64 113.58 311.24 118.89 306.05 116.94 301.5 120.1 301.76 114.56 297.35 111.21 302.69 109.75 304.51 104.51 307.56 109.14 313.1 109.26"/></g></g></g><g id="hammer"><path class="cls-18" d="M335.29,87.26a2.87,2.87,0,0,1-2-.85l-8.83-8.83a2.89,2.89,0,0,1,4.09-4.09l8.83,8.83a2.89,2.89,0,0,1-2,4.94Z"/><path class="cls-18" d="M326.46,67.65a7.89,7.89,0,0,0-5.58,13.47L329.7,90a7.89,7.89,0,0,0,11.16,0h0a7.89,7.89,0,0,0,0-11.16L332,70a7.87,7.87,0,0,0-5.58-2.31Z"/><path class="cls-19" d="M364.6,39.84c14.94-14.94,43.91-10.21,64.7,10.58s25.53,49.75,10.58,64.7c-27.3,27-82.69,57.88-82.69,57.88s-24.85,2.62-38.79-11.32-11.68-39.15-11.68-39.15S336.83,69.21,364.6,39.84Z"/><ellipse class="cls-20" cx="407.89" cy="72.31" rx="20.83" ry="37.02" transform="translate(68.34 309.6) rotate(-45)"/><path class="cls-18" d="M463.33,215.47a2.48,2.48,0,0,1-1.76-.73l-61.51-61.51a2.49,2.49,0,0,1,0-3.52l.57-.57a2.49,2.49,0,0,1,3.52,0l61.51,61.51a2.49,2.49,0,0,1,0,3.52l-.58.58A2.47,2.47,0,0,1,463.33,215.47Z"/><path class="cls-18" d="M402.39,143.41a7.46,7.46,0,0,0-5.29,2.19l-.57.57a7.49,7.49,0,0,0,0,10.59L458,218.28a7.49,7.49,0,0,0,10.59,0l.57-.57a7.49,7.49,0,0,0,0-10.59l-61.51-61.51a7.46,7.46,0,0,0-5.29-2.19Z"/><path class="cls-21" d="M337,73.25s5.11,34.34,20,49.32,48.43,20.23,48.43,20.23l-13.49,10s-29.3-5.57-44-20.35-20.73-44.68-20.73-44.68Z"/><path class="cls-13" d="M468.91,206.83,405.07,143c12.66-8.8,25.41-18.57,34.81-27.87,14.94-14.94,10.21-43.91-10.58-64.7S379.54,24.9,364.6,39.84c-9.38,9.92-19,22.57-27.69,35L332,70a7.89,7.89,0,0,0-11.16,0h0a7.89,7.89,0,0,0,0,11.16l7,7c-12.42,18.89-21.18,34.4-21.18,34.4s-2.26,25.22,11.68,39.15S357.19,173,357.19,173s15.72-8.77,34.53-21l66,66a7.89,7.89,0,0,0,11.16,0h0A7.89,7.89,0,0,0,468.91,206.83Z"/><ellipse class="cls-22" cx="409.98" cy="70.22" rx="13.09" ry="23.26" transform="translate(70.43 310.47) rotate(-45)"/><ellipse class="cls-20" cx="411.15" cy="69.04" rx="8.65" ry="15.37" transform="translate(71.6 310.95) rotate(-45)"/><ellipse class="cls-22" cx="411.61" cy="68.59" rx="5.12" ry="9.09" transform="translate(72.05 311.14) rotate(-45)"/></g></g></g></svg>