<svg xmlns="http://www.w3.org/2000/svg" viewBox="0 0 517.47 581.57"><defs><style>.cls-1{fill:#db9231;}.cls-2{fill:#54524f;}.cls-3{fill:#6d655a;}.cls-4{fill:#9b8c76;}.cls-5{fill:#ddcab1;}.cls-6{fill:#5b5853;}.cls-7{fill:#f7f4f0;}.cls-11,.cls-13,.cls-8,.cls-9{fill:none;stroke-linecap:round;stroke-linejoin:round;}.cls-8,.cls-9{stroke:#7a7167;}.cls-8{stroke-width:9px;}.cls-11,.cls-9{stroke-width:11px;}.cls-10{fill:#efb1b1;opacity:0.6;}.cls-11{stroke:#54524f;}.cls-12{fill:#dbac26;}.cls-13{stroke:#b28b29;stroke-width:7px;}</style></defs><title>home_settings</title><g id="Layer_2" data-name="Layer 2"><g id="HomePage"><rect class="cls-1" width="517.47" height="581.57" rx="30" ry="30"/><g id="settings"><g id="hole"><ellipse class="cls-2" cx="258.73" cy="370.79" rx="104.47" ry="37.18"/><path class="cls-3" d="M349.36,352.28l-1.28-.77q-2.62-1.53-5.63-3t-6.38-2.75q-1.69-.66-3.46-1.29T329,343.27q-3.71-1.2-7.74-2.27-3-.8-6.2-1.53c-4.24-1-8.69-1.83-13.32-2.57a283,283,0,0,0-86,0c-4.63.74-9.08,1.61-13.32,2.57q-3.18.73-6.2,1.53-4,1.07-7.74,2.27-1.86.6-3.63,1.23t-3.46,1.29q-3.37,1.32-6.38,2.75t-5.63,3l-1.28.77c-8.81,5.45-13.84,11.77-13.84,18.51a14.28,14.28,0,0,0,1.23,5.72c7.73-17.82,51-31.46,103.24-31.46S354.24,358.69,362,376.51a14.28,14.28,0,0,0,1.23-5.72C363.21,364.06,358.17,357.74,349.36,352.28Z"/></g><polygon class="cls-4" points="294.92 309.27 259.13 305.35 259.13 305.18 258.35 305.27 257.57 305.18 257.57 305.35 221.78 309.27 200.67 379.09 257.89 379.09 258.81 379.09 316.03 379.09 294.92 309.27"/><path id="head" class="cls-4" d="M319,148c-16.33-15.09-37.5-24.2-60.64-24.2S214,132.94,197.71,148c-20.11,18.59-32.87,46.27-32.87,77.17,0,32.13,5.93,64.69,27.44,83.26,16,13.79,44.06,18.11,66.07,18.11s50.1-4.32,66.07-18.11c21.51-18.57,27.44-51.13,27.44-83.26C351.85,194.31,339.1,166.63,319,148Z"/><ellipse class="cls-4" cx="258.35" cy="274.64" rx="92.97" ry="53.96"/><ellipse id="snout" class="cls-5" cx="258.35" cy="294.35" rx="73.37" ry="32.24"/><circle id="eyes" class="cls-6" cx="208.11" cy="250.83" r="7.06"/><circle id="eyeys" class="cls-6" cx="308.58" cy="250.83" r="7.06"/><g id="teeeth"><polygon class="cls-7" points="258.81 292.02 267.12 297.41 264.96 311.65 258.81 311.65 258.81 292.02"/><polygon class="cls-7" points="257.89 291.67 249.58 297.41 251.73 311.65 257.89 311.65 257.89 291.67"/></g><path class="cls-8" d="M259.12,289.74s1.51,10,16,10"/><path class="cls-8" d="M257.57,289.74s-1.51,10-16,10"/><path id="nose" class="cls-6" d="M258.35,269.17c-16.06,0-21.6,2.77-19.1,10.24s8.45,10.24,19.1,10.24,16.61-2.77,19.1-10.24S274.41,269.17,258.35,269.17Z"/><path class="cls-9" d="M297.63,220.68s6.77,7.06,21.9,9.06"/><path class="cls-9" d="M219.06,220.68s-6.77,7.06-21.9,9.06"/><path id="hair" class="cls-4" d="M248.21,124.54s-22.55-1.28-26.09-4.82a15.17,15.17,0,0,0,7.75,7.08s-10.53-1.26-12.81-3.54c0,0,5.05,8.93,9.77,8.93"/><ellipse class="cls-10" cx="333.91" cy="271.54" rx="11.77" ry="6.51"/><ellipse class="cls-10" cx="182.79" cy="271.54" rx="11.77" ry="6.51"/><path class="cls-11" d="M351.85,225.39c0-30.9-12.75-58.58-32.87-77.17-16.33-15.09-37.5-24.2-60.64-24.2a87.24,87.24,0,0,0-10.84.68c-3.3-.21-22.37-1.56-25.6-4.79a15.17,15.17,0,0,0,7.75,7.08s-10.53-1.26-12.81-3.54c0,0,3.08,5.45,6.68,7.83a92.42,92.42,0,0,0-25.82,16.94c-20.11,18.59-32.87,46.27-32.87,77.17a189.7,189.7,0,0,0,3.2,36.55,32.94,32.94,0,0,0-2.67,12.88c0,20,18.77,37.48,46.66,46.8l-14.94,58.51,124.21-1-16.65-57.47c27.88-9.32,46.66-26.78,46.66-46.8a32.94,32.94,0,0,0-2.67-12.88A189.7,189.7,0,0,0,351.85,225.39Z"/><path class="cls-12" d="M361.45,171v-6.55c0-42.34-36.21-77.58-84-85.09V60.93H239.29V79.36c-47.84,7.51-84,42.74-84,85.09V171H141.81v32H374.88V171Z"/><line class="cls-13" x1="258.35" y1="92.39" x2="258.35" y2="122.58"/><line class="cls-13" x1="275.09" y1="95.66" x2="275.09" y2="113.85"/><line class="cls-13" x1="241.61" y1="95.66" x2="241.61" y2="113.85"/><line class="cls-13" x1="177.23" y1="170.59" x2="339.46" y2="170.59"/><path class="cls-11" d="M362.23,171.22v-6.55c0-42.34-36.21-77.58-84-85.09V61.15H240.06V79.59c-47.84,7.51-84,42.74-84,85.09v6.55H142.59v32H375.66v-32Z"/></g></g></g></svg>