<svg xmlns="http://www.w3.org/2000/svg" viewBox="0 0 517.47 581.57"><defs><style>.cls-1{fill:#db9231;}.cls-2{fill:#bc9179;}.cls-3{fill:#af775b;}.cls-4{fill:#525252;}.cls-4,.cls-5{stroke:#525252;stroke-linecap:round;stroke-linejoin:round;stroke-width:11px;}.cls-5{fill:#95d2e8;}.cls-6{fill:#cc4f4c;}.cls-7{fill:#e5e3e3;}.cls-8{fill:#afb9d2;}</style></defs><title>home_shop</title><g id="Layer_2" data-name="Layer 2"><g id="HomePage"><rect class="cls-1" width="517.47" height="581.57" rx="30" ry="30"/><rect class="cls-2" x="110.04" y="128.96" width="305.09" height="240.67"/><rect class="cls-3" x="110.04" y="342.11" width="305.09" height="27.52"/><rect class="cls-4" x="323.16" y="200.22" width="69.35" height="163.71"/><rect class="cls-5" x="137.25" y="200.22" width="159.01" height="115.39"/><rect class="cls-5" x="324.82" y="200.22" width="66.04" height="116.99"/><path class="cls-6" d="M110,129v41.15c0,6,5.69,10.9,12.71,10.9s12.71-4.88,12.71-10.9V129Z"/><path class="cls-7" d="M135.47,129v41.15c0,6,5.69,10.9,12.71,10.9s12.71-4.88,12.71-10.9V129Z"/><path class="cls-6" d="M160.89,129v41.15c0,6,5.69,10.9,12.71,10.9s12.71-4.88,12.71-10.9V129Z"/><path class="cls-7" d="M186.32,129v41.15c0,6,5.69,10.9,12.71,10.9s12.71-4.88,12.71-10.9V129Z"/><path class="cls-6" d="M211.74,129v41.15c0,6,5.69,10.9,12.71,10.9s12.71-4.88,12.71-10.9V129Z"/><path class="cls-7" d="M237.16,129v41.15c0,6,5.69,10.9,12.71,10.9s12.71-4.88,12.71-10.9V129Z"/><path class="cls-6" d="M262.59,129v41.15c0,6,5.69,10.9,12.71,10.9S288,176.13,288,170.11V129Z"/><path class="cls-7" d="M288,129v41.15c0,6,5.69,10.9,12.71,10.9s12.71-4.88,12.71-10.9V129Z"/><path class="cls-6" d="M313.44,129v41.15c0,6,5.69,10.9,12.71,10.9s12.71-4.88,12.71-10.9V129Z"/><path class="cls-7" d="M338.86,129v41.15c0,6,5.69,10.9,12.71,10.9s12.71-4.88,12.71-10.9V129Z"/><path class="cls-6" d="M364.29,129v41.15c0,6,5.69,10.9,12.71,10.9s12.71-4.88,12.71-10.9V129Z"/><path class="cls-7" d="M389.71,129v41.15c0,6,5.69,10.9,12.71,10.9s12.71-4.88,12.71-10.9V129Z"/><rect class="cls-8" x="100.62" y="361.28" width="323.94" height="11.33"/></g></g></svg>