<svg xmlns="http://www.w3.org/2000/svg" viewBox="0 0 229.84 229.85"><defs><style>.cls-1{fill:#e7eced;}.cls-2{fill:#556080;}</style></defs><title>home_avatar</title><g id="Layer_2" data-name="Layer 2"><g id="HomePage"><path class="cls-1" d="M80.72,180.2l-34.29,18.7a30.82,30.82,0,0,0-5.5,3.92,114.85,114.85,0,0,0,147.57.38,30.42,30.42,0,0,0-6-4.05L145.73,180.8A14,14,0,0,1,138,168.27V153.87a55.46,55.46,0,0,0,3.47-4.47,84.49,84.49,0,0,0,11.41-23,11.53,11.53,0,0,0,8.18-11V100a11.48,11.48,0,0,0-3.84-8.52V69.29s4.57-34.59-42.28-34.59S72.65,69.29,72.65,69.29V91.52A11.46,11.46,0,0,0,68.8,100v15.38a11.53,11.53,0,0,0,5.32,9.68A76.31,76.31,0,0,0,88,153.87v14.05A14,14,0,0,1,80.72,180.2Z"/><path class="cls-2" d="M116.89,0A114.85,114.85,0,0,0,41,202.79a30.54,30.54,0,0,1,5.45-3.88l34.29-18.7A14,14,0,0,0,88,167.91V153.86a76.24,76.24,0,0,1-13.9-28.77,11.53,11.53,0,0,1-5.32-9.68V100a11.48,11.48,0,0,1,3.84-8.52V69.29s-4.57-34.59,42.28-34.59S157.2,69.29,157.2,69.29V91.52A11.46,11.46,0,0,1,161,100v15.38a11.53,11.53,0,0,1-8.18,11,84.49,84.49,0,0,1-11.41,23,55.46,55.46,0,0,1-3.47,4.47v14.41a14,14,0,0,0,7.74,12.52l36.72,18.36a30.58,30.58,0,0,1,6,4A114.9,114.9,0,0,0,116.89,0Z"/></g></g></svg>