<svg xmlns="http://www.w3.org/2000/svg" viewBox="0 0 1065.11 420.46"><defs><style>.cls-1{fill:#aaa23c;}.cls-2{fill:#e55c4a;}.cls-3{fill:#ba433a;}.cls-4{fill:#cc4f4c;}.cls-5{fill:none;stroke:#54524f;stroke-linecap:round;stroke-linejoin:round;stroke-width:16px;}</style></defs><title>menu_random</title><g id="Layer_2" data-name="Layer 2"><g id="Game_Mode" data-name="Game Mode"><rect class="cls-1" width="1065.11" height="420.46" rx="30" ry="30"/><polygon class="cls-2" points="233.36 199.83 187.09 221.36 233.36 242.16 279.63 220.63 233.36 199.83"/><polygon class="cls-3" points="187.09 221.36 187.09 274.77 233.36 295.57 233.36 242.16 187.09 221.36"/><polygon class="cls-4" points="279.63 220.63 279.63 274.05 233.36 295.57 233.36 242.16 279.63 220.63"/><polygon class="cls-2" points="279.63 124.89 233.36 146.41 279.63 167.21 325.89 145.69 279.63 124.89"/><polygon class="cls-3" points="233.36 146.41 233.36 199.83 279.63 220.63 279.63 167.21 233.36 146.41"/><polygon class="cls-4" points="325.89 145.69 325.89 199.1 279.63 220.63 279.63 167.21 325.89 145.69"/><polygon class="cls-2" points="187.19 125.62 140.92 147.14 187.19 167.94 233.46 146.41 187.19 125.62"/><polygon class="cls-3" points="140.92 147.14 140.92 200.56 187.19 221.36 187.19 167.94 140.92 147.14"/><polygon class="cls-4" points="233.46 146.41 233.46 199.83 187.19 221.36 187.19 167.94 233.46 146.41"/><polygon class="cls-5" points="279.57 124.89 233.36 146.39 187.14 125.62 140.87 147.14 140.87 200.56 187.09 221.33 187.04 221.36 187.04 274.77 233.31 295.57 279.57 274.05 279.57 220.63 279.57 220.63 325.84 199.1 325.84 145.69 279.57 124.89"/></g></g></svg>