<svg xmlns="http://www.w3.org/2000/svg" viewBox="0 0 1065.11 420.46"><defs><style>.cls-1{fill:#aaa23c;}.cls-2{fill:#826257;}.cls-3{fill:#9b7b6d;}.cls-4{fill:#825f55;}.cls-5{fill:#4d5c91;}.cls-6{fill:none;stroke:#54524f;stroke-linecap:round;stroke-linejoin:round;stroke-width:16px;}.cls-7{fill:#966f60;}</style></defs><title>menu_single</title><g id="Layer_2" data-name="Layer 2"><g id="Game_Mode" data-name="Game Mode"><rect class="cls-1" width="1065.11" height="420.46" rx="30" ry="30"/><path class="cls-2" d="M172.83,167.41a3.88,3.88,0,0,1-2.76-1.14l-10-10a3.9,3.9,0,0,1,5.52-5.52l10,10a3.9,3.9,0,0,1-2.76,6.66Z"/><path class="cls-2" d="M162.87,144.66a8.87,8.87,0,0,0-6.29,2.61h0a8.9,8.9,0,0,0,0,12.59l10,10a8.9,8.9,0,0,0,12.59,0h0a8.9,8.9,0,0,0,0-12.59l-10-10a8.87,8.87,0,0,0-6.29-2.61Z"/><path class="cls-3" d="M205.88,113.3c16.85-16.85,49.52-11.51,73,11.93s28.79,56.11,11.93,73c-30.78,30.43-93.25,65.27-93.25,65.27s-28,3-43.74-12.76-13.17-44.15-13.17-44.15S174.57,146.41,205.88,113.3Z"/><ellipse class="cls-4" cx="254.7" cy="149.91" rx="23.49" ry="41.75" transform="translate(-31.4 224.01) rotate(-45)"/><path class="cls-2" d="M317.22,312a3.42,3.42,0,0,1-2.44-1l-69.37-69.37a3.44,3.44,0,0,1,0-4.87l.64-.64a3.44,3.44,0,0,1,4.87,0l69.37,69.37a3.44,3.44,0,0,1,0,4.87l-.65.65A3.42,3.42,0,0,1,317.22,312Z"/><path class="cls-2" d="M248.5,230.1a8.42,8.42,0,0,0-6,2.47l-.65.65a8.44,8.44,0,0,0,0,11.94l69.37,69.37a8.44,8.44,0,0,0,11.94,0l.65-.65a8.44,8.44,0,0,0,0-11.94l-69.37-69.37a8.42,8.42,0,0,0-6-2.47Z"/><path class="cls-5" d="M174.72,151s5.76,38.72,22.53,55.62,54.61,22.82,54.61,22.82l-15.21,11.31s-33-6.28-49.58-22.95-23.38-50.39-23.38-50.39Z"/><path class="cls-6" d="M323.51,301.61l-72-72c14.28-9.93,28.65-20.94,39.26-31.42,16.85-16.85,11.51-49.52-11.93-73s-56.11-28.79-73-11.93c-10.58,11.19-21.46,25.46-31.23,39.45l-5.49-5.49a8.9,8.9,0,0,0-12.59,0h0a8.9,8.9,0,0,0,0,12.59l7.91,7.91c-14,21.3-23.88,38.79-23.88,38.79S138.06,235,153.78,250.7s43.74,12.76,43.74,12.76,17.73-9.89,38.94-23.72l74.46,74.46a8.9,8.9,0,0,0,12.59,0h0A8.9,8.9,0,0,0,323.51,301.61Z"/><ellipse class="cls-7" cx="257.06" cy="147.55" rx="14.76" ry="26.24" transform="translate(-29.04 224.99) rotate(-45)"/><ellipse class="cls-4" cx="258.38" cy="146.23" rx="9.75" ry="17.33" transform="translate(-27.72 225.53) rotate(-45)"/><ellipse class="cls-7" cx="258.89" cy="145.72" rx="5.77" ry="10.26" transform="translate(-27.21 225.74) rotate(-45)"/></g></g></svg>