<svg xmlns="http://www.w3.org/2000/svg" viewBox="0 0 85.65 84.11"><defs><style>.cls-1{fill:#eac31b;}.cls-2{fill:#ffde3b;}.cls-3{fill:none;stroke:#525252;stroke-linecap:round;stroke-linejoin:round;stroke-width:5px;}</style></defs><title>shop_coins</title><g id="Layer_2" data-name="Layer 2"><g id="Shop"><g id="Coins"><path class="cls-1" d="M81.9,61.19c-4.45-7.07-20.26-12.3-39.07-12.3S8.2,54.12,3.75,61.19H2.5v4.06c0,9,18.05,16.36,40.32,16.36s40.33-7.32,40.33-16.36V61.19Z"/><ellipse class="cls-2" cx="42.83" cy="58.65" rx="40.32" ry="16.36"/><path class="cls-1" d="M81.9,47.29C77.45,40.21,61.64,35,42.83,35S8.2,40.21,3.75,47.29H2.5v4.06c0,9,18.05,16.36,40.32,16.36s40.33-7.32,40.33-16.36V47.29Z"/><ellipse class="cls-2" cx="42.83" cy="44.74" rx="40.32" ry="16.36"/><path class="cls-1" d="M80.4,13.83C74.28,8.14,57.66,7.14,39.47,12S7.35,25.91,4.87,33.89l-1.21.32,1,3.92C7,46.86,26.35,49.31,47.87,43.59S85,26.17,82.65,17.43l-1-3.92Z"/><ellipse class="cls-2" cx="41.98" cy="21.4" rx="40.32" ry="16.36" transform="translate(-4.09 11.49) rotate(-14.87)"/><path class="cls-3" d="M83.15,47.29h-.49a7,7,0,0,0,.49-2.55c0-4.43-4.34-8.44-11.38-11.38,7.85-5.19,12.18-11,10.88-15.92l-1-3.92-.47.13A7,7,0,0,0,81,11C78.63,2.32,59.3-.13,37.78,5.59S.68,23,3,31.75a7,7,0,0,0,1.13,2.34l-.47.13,1,3.92A6.79,6.79,0,0,0,5,39a8.46,8.46,0,0,0-2.52,5.7A7,7,0,0,0,3,47.29H2.5v4.06a7.4,7.4,0,0,0,1,3.65,7.4,7.4,0,0,0-1,3.65A7,7,0,0,0,3,61.19H2.5v4.06c0,9,18.05,16.36,40.33,16.36s40.33-7.32,40.33-16.36V61.19h-.49a7,7,0,0,0,.49-2.55,7.4,7.4,0,0,0-1-3.65,7.4,7.4,0,0,0,1-3.65Z"/></g></g></g></svg>